<svg xmlns="http://www.w3.org/2000/svg" width="124" height="124" viewBox="0 0 124 124"><defs><style>.a{fill:#5c99b0;}.b{fill:#fff;}</style></defs><g transform="translate(-322 -112)"><rect class="a" width="124" height="124" rx="6" transform="translate(322 112)"/><g transform="translate(197 66)"><g transform="translate(143 78)"><g transform="translate(0 0)"><g transform="translate(0 0)"><g transform="translate(0 9.56)"><path class="b" d="M28.068,27.959c1.193-2.572,2.142-6,.361-8.54-2.087-2.975-6.607-2.064-9.369-.794-3.9,1.8-6.893,5.423-9.452,8.747a51.51,51.51,0,0,0-7.6,13.469C-.207,46.8-1.611,54.759,3.442,59.709c3.856,3.779,10.015,4.155,15.071,3.578,6.275-.717,12.792-3.064,17.617-7.224.927-.8-.42-2.133-1.338-1.34-4.447,3.833-10.517,5.947-16.279,6.67C13.42,62.03,6.839,61.605,3.607,57c-1.794-2.552-1.942-5.877-1.533-8.866A39.67,39.67,0,0,1,8.146,32.724c2.549-4.071,5.688-8.2,9.576-11.076,2.783-2.065,9.742-4.348,9.788,1.236A9.928,9.928,0,0,1,26.432,27c-.512,1.1,1.121,2.064,1.636.957Z" transform="translate(0 -17.43)"/></g><g transform="translate(43.897 44.157)"><path class="b" d="M80.036,80.51c.1,1.005.225,2.022.41,2.964A15.511,15.511,0,0,1,80.036,80.51Z" transform="translate(-80.036 -80.51)"/></g><g transform="translate(30.822 0.862)"><path class="b" d="M99.133,48.806C92,53.389,91.412,39.7,91.222,35.658q-.054-1.153-.077-2.307a38.325,38.325,0,0,0,6.394-1.635c1.158-.369.667-2.2-.5-1.826a37.88,37.88,0,0,1-5.906,1.548c.006-2.076.077-4.163.189-6.235a71.163,71.163,0,0,1,1.067-10.576c.251-1.2-1.575-1.7-1.825-.5a74.991,74.991,0,0,0-1.148,11.3q-.176,3.092-.175,6.194c-.22.012-.446.016-.665.012a.949.949,0,0,0,0,1.9c.229,0,.461,0,.687-.011q.046,2.123.19,4.231a40.323,40.323,0,0,0,.789,5.66c.052,1.85-.231,3.973-1.672,5.163-.01.006-.021.015-.027.02-2.26,1.682-2.7-3.3-2.86-4.743q-.107-.921-.171-1.86a25.578,25.578,0,0,0,.016-6c0-.089-.021-.171-.031-.253-.166-1.124-1.78-.739-1.862.253a42.6,42.6,0,0,0,.02,5.346c-.047.472-.091.944-.143,1.406-.256,2.333-.631,5.527-2.339,7.311a1.545,1.545,0,0,1-.979.548c-1.585.092-2.548-3.825-2.656-4.83-.036-.338.216-5.876.287-8.265.036-1.236-1.8-1.2-1.9,0-.193,2.394-.354,5.753-.354,7.22a10.213,10.213,0,0,1-.558,3.3c-.466,1.252-1.3,2.073-1.744,2.073-.877,0-1.762-1.565-1.891-3.467s-.026-7.352-1.138-9.48a.961.961,0,0,0-1.3-.338c-2.1.98-2.888,3.855-3.457,5.891-.185.652-.348,1.317-.492,1.989-.5-2.451-1.071-4.886-1.634-7.326-.1-.416-.19-.826-.283-1.241.061-.083.123-.165.179-.251a67.227,67.227,0,0,0,7.056-14.7c2.329-6.84,1-15.485-6.592-18.972-2.6-1.193-5.475-.76-6.788,1.979C56.058,6,56.176,8.2,56.243,10.16a54.188,54.188,0,0,0,.923,7.6c1.062,6.008,2.564,11.947,3.968,17.9a18.283,18.283,0,0,1-1.25,1.42c-.488.451-1.159.965-.882,1.468a1.007,1.007,0,0,0,.569.491,1.443,1.443,0,0,0,.933-.292,9.469,9.469,0,0,0,1.129-.975c1,4.344,1.917,8.707,2.549,13.116.011.082.026.17.036.251.154,1.108,1.809.759,1.861-.251A38.917,38.917,0,0,1,67,44.494c.3-1.354,1.184-4.907,1.64-4.907s.4,2.481.523,4.03c.031.41.073.831.114,1.25.1,1.005.225,2.022.41,2.964,0,.01.005.02.005.036,1.277,4.8,4.087,4.47,4.143,4.46,1.277-.179,2.066-1.692,2.57-3.107.9,2.036,2.882,3.979,5.173,2.83,1.652-.83,2.5-2.708,3.006-4.6.738,2.522,1.983,4.184,4.044,3.281,0-.005.01-.005.021-.005a1.509,1.509,0,0,0,.205-.082,5.005,5.005,0,0,0,2.619-3.211c1.539,3.589,4.163,5.877,8.619,3.011C101.113,49.786,100.164,48.143,99.133,48.806ZM62.57,33.634c-.01.015-.021.036-.035.056-.7-3.241-1.38-6.492-2.129-9.727C59.641,20.646,54.525,1.542,62.2,3.634c3.24.887,5.871,4.009,6.855,7.1,1.025,3.225.369,6.772-.563,9.931a57.5,57.5,0,0,1-3.933,9.044c-.579,1.179-1.144,2.369-1.769,3.527C62.719,33.371,62.642,33.5,62.57,33.634Z" transform="translate(-56.197 -1.571)"/></g><g transform="translate(83.311)"><path class="b" d="M154.68.916c.208,12.61-2,25.081-2.778,37.636-.076,1.221,1.819,1.214,1.895,0C154.578,26,156.783,13.526,156.575.916a.948.948,0,0,0-1.895,0Z" transform="translate(-151.899 0)"/></g><g transform="translate(81.123 46.669)"><path class="b" d="M151.578,87.282a6.9,6.9,0,0,1-1.773,1.2,1.317,1.317,0,0,1-1.281-.256,1.47,1.47,0,0,1-.54-.79c-.408-.912,1.011-1.677,1.057-1.7.123-.06,1.235-.839,2.05-.594a.086.086,0,0,1,.052.015.6.6,0,0,1,.184.088,1.013,1.013,0,0,1,.164.133c.015.015.025.031.042.046a.435.435,0,0,1,.05.057A1.172,1.172,0,0,1,151.578,87.282Z" transform="translate(-147.911 -85.091)"/></g><g transform="translate(46.35 55.936)"><path class="b" d="M84.51,102.066h.477v3.33H84.51Z" transform="translate(-84.51 -102.023)"/><path class="b" d="M92.944,102.066H93.4v3.33h-.41l-2.226-2.565V105.4h-.448v-3.33H90.7l2.245,2.586Z" transform="translate(-87.13 -102.023)"/><path class="b" d="M100.279,102.057h2.781v.424H101.9v2.911h-.479v-2.911h-1.142Z" transform="translate(-91.63 -102.019)"/><path class="b" d="M109.741,102.066h.477v3.33h-.477Z" transform="translate(-95.903 -102.023)"/><path class="b" d="M118.16,102.066h.446v3.33h-.479V102.8l-1.023,1.287h-.088L115.98,102.8V105.4H115.5v-3.33h.451l1.107,1.367Z" transform="translate(-98.505 -102.023)"/><path class="b" d="M126.789,102.031h.335l1.493,3.349h-.488l-.444-.987h-1.421l-.416.987h-.49Zm.7,1.938-.537-1.206-.5,1.206Z" transform="translate(-102.955 -102.007)"/><path class="b" d="M134.118,102.057H136.9v.424h-1.161v2.911h-.479v-2.911h-1.142Z" transform="translate(-106.91 -102.019)"/><path class="b" d="M143.571,102.066h1.888v.424h-1.411v1.016h1.364v.427h-1.364v1.034H145.5v.424h-1.933v-3.325Z" transform="translate(-111.178 -102.023)"/><path class="b" d="M152.27,103.965l-.362-.22a1.647,1.647,0,0,1-.485-.41.778.778,0,0,1-.144-.463.819.819,0,0,1,.273-.639,1.022,1.022,0,0,1,.709-.246,1.345,1.345,0,0,1,.766.234v.541a1.1,1.1,0,0,0-.774-.346.642.642,0,0,0-.384.108.328.328,0,0,0-.15.276.427.427,0,0,0,.11.28,1.406,1.406,0,0,0,.355.274l.364.216a1.066,1.066,0,0,1,.609.926.85.85,0,0,1-.268.651.979.979,0,0,1-.7.25,1.462,1.462,0,0,1-.9-.3v-.605a1.121,1.121,0,0,0,.893.489.563.563,0,0,0,.374-.125.39.39,0,0,0,.149-.312Q152.708,104.238,152.27,103.965Z" transform="translate(-114.658 -101.987)"/></g></g></g></g></g></g></svg>