<svg xmlns="http://www.w3.org/2000/svg" xmlns:xlink="http://www.w3.org/1999/xlink" width="20" height="20" viewBox="0 0 20 20">
    <defs>
        <path id="a" d="M5.956 4.24v-.72C5.956 2.128 7.058 1 8.418 1h3.164c1.36 0 2.462 1.128 2.462 2.52v.72h3.077a.89.89 0 0 1 .879.9.89.89 0 0 1-.88.9h-.702v10.44c0 1.392-1.102 2.52-2.462 2.52H6.044c-1.36 0-2.462-1.128-2.462-2.52V6.04H2.88A.89.89 0 0 1 2 5.14c0-.497.394-.9.88-.9h3.076zm1.758 0h4.572v-.72a.712.712 0 0 0-.704-.72H8.418a.712.712 0 0 0-.704.72v.72zm6.945 1.8H5.341v10.44c0 .398.315.72.703.72h7.912a.712.712 0 0 0 .703-.72V6.04zM7.54 9.19c0-.497.393-.9.879-.9a.89.89 0 0 1 .879.9v4.86a.89.89 0 0 1-.88.9.89.89 0 0 1-.879-.9V9.19zm3.164 0c0-.497.394-.9.88-.9a.89.89 0 0 1 .879.9v4.86a.89.89 0 0 1-.88.9.89.89 0 0 1-.879-.9V9.19z"/>
    </defs>
    <g fill="none" fill-rule="evenodd">
        <mask id="b" fill="#fff">
            <use xlink:href="#a"/>
        </mask>
        <use fill="#000" fill-rule="nonzero" xlink:href="#a"/>
        <g fill="#A4A3A3" mask="url(#b)">
            <path d="M0 0h20v20H0z"/>
        </g>
    </g>
</svg>
