<svg xmlns="http://www.w3.org/2000/svg" xmlns:xlink="http://www.w3.org/1999/xlink" width="14" height="14" viewBox="0 0 20 20">
    <defs>
        <path id="a" d="M10.383 8.9c-2.23-.59-2.947-1.2-2.947-2.15 0-1.09.992-1.85 2.652-1.85 1.749 0 2.397.85 2.456 2.1h2.171c-.069-1.72-1.1-3.3-3.153-3.81V1H8.615v2.16c-1.906.42-3.438 1.68-3.438 3.61 0 2.31 1.876 3.46 4.617 4.13 2.456.6 2.947 1.48 2.947 2.41 0 .69-.482 1.79-2.653 1.79-2.023 0-2.819-.92-2.927-2.1H5c.118 2.19 1.729 3.42 3.615 3.83V19h2.947v-2.15C13.477 16.48 15 15.35 15 13.3c0-2.84-2.387-3.81-4.617-4.4z"/>
    </defs>
    <g fill="none" fill-rule="evenodd">
        <mask id="b" fill="#fff">
            <use xlink:href="#a"/>
        </mask>
        <use fill="#000" fill-rule="nonzero" xlink:href="#a"/>
        <g fill="#A4A3A3" mask="url(#b)">
            <path d="M0 0h20v20H0z"/>
        </g>
    </g>
</svg>
