<svg xmlns="http://www.w3.org/2000/svg" xmlns:xlink="http://www.w3.org/1999/xlink" width="40" height="40" viewBox="0 0 20 20">
    <defs>
        <path id="a" d="M3.067 1.034v17.931l5.93-3.065a2.192 2.192 0 0 1 2.006 0l5.93 3.065V1.035H3.067zm0-1.034h13.866C17.523 0 18 .463 18 1.034v17.931c0 .572-.478 1.035-1.067 1.035-.175 0-.347-.042-.501-.122l-5.93-3.065a1.096 1.096 0 0 0-1.004 0l-5.93 3.065a1.084 1.084 0 0 1-1.443-.426A1.01 1.01 0 0 1 2 18.965V1.035C2 .462 2.478 0 3.067 0zm7.192 4.169l1.08 2.29 2.414.368c.236.037.33.341.16.516l-1.747 1.784.412 2.518c.04.248-.207.436-.419.32L10 10.774l-2.16 1.19c-.21.116-.458-.072-.418-.32l.412-2.518-1.747-1.784c-.17-.175-.076-.48.16-.516l2.414-.367 1.08-2.291a.283.283 0 0 1 .518 0z"/>
    </defs>
    <g fill="none" fill-rule="evenodd">
        <mask id="b" fill="#fff">
            <use xlink:href="#a"/>
        </mask>
        <use fill="#979797" fill-rule="nonzero" xlink:href="#a"/>
        <g fill="#A4A3A3" mask="url(#b)">
            <path d="M0 0h20v20H0z"/>
        </g>
    </g>
</svg>
