<svg xmlns="http://www.w3.org/2000/svg" xmlns:xlink="http://www.w3.org/1999/xlink" width="16" height="16" viewBox="0 0 16 16">
    <defs>
        <path id="a" d="M12.46 3.974c.358.347.71.653.71 1.195 0 .544-.352.847-.71 1.195.139.492.292.933.004 1.41-.274.455-.724.542-1.2.66-.12.48-.207.934-.67 1.206-.473.279-.913.127-1.399-.011-.347.358-.653.71-1.195.71-.543 0-.848-.352-1.195-.71-.475.135-.91.287-1.377.024-.469-.24-.575-.755-.693-1.219-.503-.127-.972-.219-1.235-.723-.24-.46-.091-.885.04-1.347-.358-.348-.71-.651-.71-1.195s.352-.846.71-1.195c-.13-.457-.277-.882-.044-1.338.259-.51.735-.603 1.24-.732.118-.475.205-.93.662-1.201.48-.285.915-.134 1.407.006C7.152.351 7.457 0 8 0c.544 0 .846.351 1.195.71.448-.12.995-.262 1.42.001.445.277.532.723.65 1.193.492.124.962.219 1.226.706.25.465.102.895-.032 1.364zM8.736 7.921c-.21.216-.404.396-.737.396-.333 0-.527-.18-.737-.396-.286.081-.541.142-.825-.019-.292-.149-.378-.429-.452-.719-.305-.077-.567-.16-.729-.47-.146-.28-.087-.53-.009-.806-.216-.21-.396-.404-.396-.738 0-.334.18-.526.396-.737-.078-.274-.136-.522.006-.8.16-.314.425-.398.731-.477.073-.287.149-.539.43-.705.293-.175.552-.116.848-.033.21-.215.404-.396.737-.396.335 0 .528.182.739.398.284-.072.593-.127.856.037.273.17.348.416.42.699.297.076.56.158.721.459.154.283.095.535.016.818.215.21.396.404.396.737 0 .334-.18.527-.396.738.083.296.142.557-.034.85-.168.278-.418.355-.704.427-.073.289-.15.54-.433.708-.29.17-.55.111-.844.029zm.497-.627c.085-.06.176-.53.215-.676.144-.038.624-.13.678-.219.055-.088-.11-.556-.147-.7.105-.105.477-.426.477-.53 0-.102-.373-.425-.477-.53.039-.146.197-.603.149-.697-.045-.09-.539-.184-.68-.222-.038-.142-.133-.624-.216-.677-.09-.056-.558.108-.703.147-.105-.106-.427-.478-.53-.478-.103 0-.425.372-.53.478-.145-.039-.612-.204-.701-.148-.088.056-.18.533-.218.678-.14.038-.64.132-.681.224-.045.099.111.547.15.695-.104.105-.477.428-.477.53 0 .104.372.425.478.53-.04.148-.199.601-.15.699.045.087.54.183.68.22.04.148.123.62.219.678.092.053.555-.109.7-.147.106.105.426.477.53.477.103 0 .425-.372.53-.477.169.045.57.199.704.145zM2.981 8.326a.32.32 0 0 1 .445-.088c.339.227.398.3.814.414.14.039.197.133.235.259.244.823.873 1.343 1.754 1.184a.321.321 0 0 1 .333.477L3.79 15.293c-.154.264-.553.18-.594-.118l-.36-2.538-2.428.676c-.293.08-.52-.253-.347-.496a759.752 759.752 0 0 1 2.921-4.49zm11.966 4.141l-.153-.237c-.612-.949-1.54-2.386-2.12-3.263-.18.11-.373.19-.574.254-.285.823-.923 1.45-1.811 1.535l2.009 3.42.282-1.99a.321.321 0 0 1 .418-.262l1.95.543zm.388-.584l.605.934c.173.243-.054.577-.347.496l-2.428-.676-.36 2.538c-.042.297-.44.382-.595.118l-2.772-4.72a.321.321 0 0 1 .333-.478c.895.162 1.525-.378 1.763-1.212.028-.111.115-.2.226-.23.416-.116.475-.188.813-.415a.32.32 0 0 1 .445.088c.58.865 1.643 2.512 2.317 3.557zm-14.282.584l1.949-.543c.19-.06.39.062.418.262l.282 1.99 2.009-3.42c-.888-.085-1.526-.712-1.811-1.535a2.506 2.506 0 0 1-.574-.254c-.768 1.159-1.52 2.331-2.273 3.5zm7.926-3.641c.346.092.923.347 1.246.196.264-.147.376-.891.452-1.176.308-.082 1.014-.186 1.172-.444.163-.266-.109-.942-.192-1.253.226-.227.792-.673.792-.98 0-.306-.566-.752-.792-.979.082-.31.34-.963.204-1.232-.14-.279-.874-.383-1.184-.466-.079-.294-.191-1.014-.438-1.168-.27-.17-.944.104-1.26.189-.226-.227-.672-.794-.98-.794-.306 0-.752.567-.978.794-.316-.085-.988-.36-1.258-.19-.256.161-.357.861-.44 1.17-.312.083-1.06.187-1.191.479-.122.27.13.91.212 1.218-.227.226-.794.674-.794.98 0 .306.567.752.794.979-.084.312-.343.96-.205 1.233.139.274.877.382 1.184.464.086.321.173 1.01.45 1.176.27.153.936-.113 1.248-.196.228.227.67.793.979.793.305 0 .753-.567.98-.793z"/>
    </defs>
    <g fill="none" fill-rule="evenodd">
        <mask id="b" fill="#fff">
            <use xlink:href="#a"/>
        </mask>
        <use fill="#000" xlink:href="#a"/>
        <g fill="#40B630" mask="url(#b)">
            <path d="M0 0h16v16H0z"/>
        </g>
    </g>
</svg>
