<svg xmlns="http://www.w3.org/2000/svg" width="40" height="40" viewBox="0 0 40 40">
    <path fill="#1D1D1D" fill-rule="nonzero" d="M36.667 17.333A3.337 3.337 0 0 1 40 20.667v16A3.337 3.337 0 0 1 36.667 40H7.333A3.337 3.337 0 0 1 4 36.667v-14h-.667A3.337 3.337 0 0 1 0 19.333v-16A3.337 3.337 0 0 1 3.333 0h29.334A3.337 3.337 0 0 1 36 3.333v14h.667zM1.333 6.667v2.666h33.334V6.667H1.333zm2-5.334c-1.102 0-2 .898-2 2v2h33.334v-2c0-1.102-.898-2-2-2H3.333zm0 20H4v-.666a3.337 3.337 0 0 1 3.333-3.334h15.334V16c0-1.103.897-2 2-2H26c.514 0 .979.2 1.333.52.355-.32.82-.52 1.334-.52H30c1.103 0 2 .897 2 2v1.333h2.667v-6.666H1.333v8.666c0 1.103.898 2 2 2zm23.334-4V16c0-.367-.3-.667-.667-.667h-1.333c-.368 0-.667.3-.667.667v1.333h2.667zM28 16v1.333h2.667V16c0-.367-.3-.667-.667-.667h-1.333c-.368 0-.667.3-.667.667zm10.667 20.667v-16c0-1.103-.898-2-2-2H7.333c-1.102 0-2 .897-2 2v16c0 1.102.898 2 2 2h29.334c1.102 0 2-.898 2-2zM10 27.333c-1.103 0-2-.897-2-2v-2.666c0-1.103.897-2 2-2h4c1.103 0 2 .897 2 2v2.666c0 1.103-.897 2-2 2h-4zm-.667-4.666v2.666c0 .368.3.667.667.667h4c.367 0 .667-.3.667-.667v-2.666c0-.368-.3-.667-.667-.667h-4c-.367 0-.667.3-.667.667zM8 34.667h10.667V36H8v-1.333zm0-4h5.333V32H8v-1.333zm7.333 0h5.334V32h-5.334v-1.333zm7.334 0H28V32h-5.333v-1.333zm7.333 0h5.333V32H30v-1.333zm-8.667 4H32V36H21.333v-1.333zm12.667-10v2h1.333V28H26v-1.333h1.333v-2h-.666a.666.666 0 0 1-.427-1.179l4-3.333a.665.665 0 0 1 .853 0l4 3.333a.667.667 0 0 1-.426 1.179H34zm-1.333 2v-2h-1.334v2h1.334zm-2-5.132l-2.159 1.798h4.317l-2.158-1.798zm-2 3.132v2H30v-2h-1.333z"/>
</svg>
