<svg xmlns="http://www.w3.org/2000/svg" xmlns:xlink="http://www.w3.org/1999/xlink" width="16" height="16" viewBox="0 0 20 20">
    <defs>
        <path id="a" d="M18.182 2.182a1 1 0 0 1 1.414 1.414l-8.889 8.889a1 1 0 0 1-1.414 0L6.626 9.818A1 1 0 0 1 8.04 8.404l1.96 1.96 8.182-8.182zM17 10a1 1 0 0 1 2 0v6.222A2.778 2.778 0 0 1 16.222 19H3.778A2.778 2.778 0 0 1 1 16.222V3.778A2.778 2.778 0 0 1 3.778 1h9.778a1 1 0 0 1 0 2H3.778A.778.778 0 0 0 3 3.778v12.444c0 .43.348.778.778.778h12.444c.43 0 .778-.348.778-.778V10z"/>
    </defs>
    <g fill="none" fill-rule="evenodd">
        <mask id="b" fill="#fff">
            <use xlink:href="#a"/>
        </mask>
        <use fill="#000" fill-rule="nonzero" xlink:href="#a"/>
        <g fill="#A4A3A3" mask="url(#b)">
            <path d="M0 0h20v20H0z"/>
        </g>
    </g>
</svg>
