<svg xmlns="http://www.w3.org/2000/svg" xmlns:xlink="http://www.w3.org/1999/xlink" width="14" height="14" viewBox="0 0 20 20">
    <defs>
        <path id="a" d="M3.7 2.8a.9.9 0 0 0-.9.9v12.6a.9.9 0 0 0 .9.9h12.6a.9.9 0 0 0 .9-.9V3.7a.9.9 0 0 0-.9-.9H3.7zm0-1.8h12.6A2.7 2.7 0 0 1 19 3.7v12.6a2.7 2.7 0 0 1-2.7 2.7H3.7A2.7 2.7 0 0 1 1 16.3V3.7A2.7 2.7 0 0 1 3.7 1zm2.7 9.9a.9.9 0 1 1 0-1.8h7.2a.9.9 0 1 1 0 1.8H6.4z"/>
    </defs>
    <g fill="none" fill-rule="evenodd">
        <mask id="b" fill="#fff">
            <use xlink:href="#a"/>
        </mask>
        <use fill="#000" fill-rule="nonzero" xlink:href="#a"/>
        <g fill="#A4A3A3" mask="url(#b)">
            <path d="M0 0h20v20H0z"/>
        </g>
    </g>
</svg>
