<svg xmlns="http://www.w3.org/2000/svg" xmlns:xlink="http://www.w3.org/1999/xlink" width="14" height="14" viewBox="0 0 20 20">
    <defs>
        <path id="a" d="M16.775 5.207a1.402 1.402 0 0 0-1.982-1.982L3.943 14.074l-.742 2.725 2.725-.743 10.85-10.85zm-.158-4.097a3.216 3.216 0 0 1 1.441 5.38L7.038 17.509a.907.907 0 0 1-.402.234l-4.49 1.224a.907.907 0 0 1-1.113-1.114l1.224-4.489a.907.907 0 0 1 .234-.403l11.02-11.02a3.216 3.216 0 0 1 3.106-.831z"/>
    </defs>
    <g fill="none" fill-rule="evenodd">
        <mask id="b" fill="#fff">
            <use xlink:href="#a"/>
        </mask>
        <use fill="#000" fill-rule="nonzero" xlink:href="#a"/>
        <g fill="#A4A3A3" mask="url(#b)">
            <path d="M0 0h20v20H0z"/>
        </g>
    </g>
</svg>
