<svg xmlns="http://www.w3.org/2000/svg" xmlns:xlink="http://www.w3.org/1999/xlink" width="14" height="14" viewBox="0 0 20 20">
    <defs>
        <path id="a" d="M17.915 2.695l-1.617 1.683c-.889.926-2.223-.463-1.333-1.389l1.616-1.684c.89-.926 2.224.463 1.334 1.39zm-9.092 8.103a3.405 3.405 0 0 0-4.91.045c-1.352 1.407-1.37 3.683-.05 5.107a3.41 3.41 0 0 0 3.393.963c1.215-.336 2.164-1.324 2.486-2.59a3.753 3.753 0 0 0-.919-3.525zm1.319-1.406c1.377 1.414 1.92 3.489 1.423 5.436-.496 1.946-1.956 3.467-3.825 3.984-1.87.517-3.862-.049-5.227-1.49C.47 15.119.5 11.619 2.579 9.454c2.066-2.153 5.4-2.195 7.517-.106l.046.044zm-1.33.004l3.323-3.46c.89-.926 2.223.463 1.334 1.39l-3.323 3.46c-.889.926-2.223-.464-1.334-1.39zm3.323-2.07a1.011 1.011 0 0 1 0-1.39l2.83-2.947a.917.917 0 0 1 1.333 0l2.426 2.526a1.011 1.011 0 0 1 0 1.39l-2.83 2.946a.917.917 0 0 1-1.334 0l-2.425-2.526zm3.092.441l1.496-1.557-1.091-1.137-1.496 1.558 1.091 1.136zm-1.758-.442l2.83-2.947-1.334-1.389-2.83 2.947 1.334 1.39zm-1.334-1.389l2.83-2.947c.889-.926 2.223.463 1.333 1.39l-2.83 2.946c-.888.926-2.222-.463-1.333-1.389z"/>
    </defs>
    <g fill="none" fill-rule="evenodd">
        <mask id="b" fill="#fff">
            <use xlink:href="#a"/>
        </mask>
        <use fill="#000" fill-rule="nonzero" xlink:href="#a"/>
        <g fill="#A4A3A3" mask="url(#b)">
            <path d="M0 0h20v20H0z"/>
        </g>
    </g>
</svg>
