<svg xmlns="http://www.w3.org/2000/svg" xmlns:xlink="http://www.w3.org/1999/xlink" width="14" height="14" viewBox="0 0 20 20">
    <defs>
        <path id="a" d="M18 18.1c0 .497-.398.9-.889.9a.894.894 0 0 1-.889-.9v-1.8c0-1.491-1.194-2.7-2.666-2.7H6.444c-1.472 0-2.666 1.209-2.666 2.7v1.8c0 .497-.398.9-.89.9A.894.894 0 0 1 2 18.1v-1.8c0-2.485 1.99-4.5 4.444-4.5h7.112C16.01 11.8 18 13.815 18 16.3v1.8zM10 10c-2.455 0-4.444-2.015-4.444-4.5S7.546 1 10 1c2.455 0 4.444 2.015 4.444 4.5S12.454 10 10 10zm0-1.8c1.473 0 2.667-1.209 2.667-2.7S11.473 2.8 10 2.8c-1.473 0-2.667 1.209-2.667 2.7S8.527 8.2 10 8.2z"/>
    </defs>
    <g fill="none" fill-rule="evenodd">
        <mask id="b" fill="#fff">
            <use xlink:href="#a"/>
        </mask>
        <use fill="#000" fill-rule="nonzero" xlink:href="#a"/>
        <g fill="#A4A3A3" mask="url(#b)">
            <path d="M0 0h20v20H0z"/>
        </g>
    </g>
</svg>
