<svg xmlns="http://www.w3.org/2000/svg" xmlns:xlink="http://www.w3.org/1999/xlink" width="14" height="14" viewBox="0 0 20 20">
    <defs>
        <path id="a" d="M6.4 16.9C2.85 16.9 0 14 0 10.45 0 6.9 2.85 4 6.4 4c1.65 0 3.2.65 4.3 1.65C9.35 6.9 9.4 7 8.9 7.5c-.65-.55-1.4-.95-2.5-.95-2.1 0-3.75 1.7-3.75 3.8 0 2.1 1.65 3.85 3.75 3.85s2.9-1 3.45-2.5h-3.4V9.2h6.1c.45 3.1-.85 7.7-6.15 7.7zM20 10.8h-2v2.5h-1.5v-2.5H14V9.3h2.5v-2H18v2h2v1.5z"/>
    </defs>
    <g fill="none" fill-rule="evenodd">
        <mask id="b" fill="#fff">
            <use xlink:href="#a"/>
        </mask>
        <use fill="#fff" fill-rule="nonzero" xlink:href="#a"/>
        <g fill="#fff" mask="url(#b)">
            <path d="M0 0h20v20H0z"/>
        </g>
    </g>
</svg>
