<svg xmlns="http://www.w3.org/2000/svg" width="40" height="40" viewBox="0 0 40 40">
    <path fill="#E21C2B" fill-rule="nonzero" d="M8.594 23.61l.67.347.046-.761.674-.39-.127 1.416 1.344.63-.685.395-.73-.335-.063.793-.663.383.113-1.466-1.264-.617.685-.396zm2.24-1.294l.671.347.046-.761.674-.39-.127 1.417 1.344.63-.685.395-.73-.335-.064.793-.662.382.113-1.465-1.265-.618.685-.395zm2.24-1.294l.671.348.046-.761.674-.39-.127 1.416 1.344.63-.685.395-.73-.334-.064.792-.662.382.113-1.465-1.265-.617.685-.396zm2.312.218l-.294-.51 1.364-.787.294.51-1.364.787zm1.642-2.5l.67.347.046-.76.674-.39-.126 1.416 1.343.63-.685.395-.73-.335-.063.793-.662.382.112-1.465-1.264-.618.685-.395zm2.24-1.293l.67.347.046-.761.674-.39-.126 1.417 1.343.629-.685.396-.73-.335-.063.792-.662.383.113-1.465-1.265-.618.685-.395zm2.311.217l-.294-.51 1.364-.786.294.509-1.364.787zm1.641-2.5l.671.348.046-.761.674-.39-.127 1.417 1.344.629-.685.395-.73-.334-.064.792-.662.383.113-1.465-1.265-.618.685-.395zm2.241-1.293l.671.347.045-.76.675-.39-.127 1.416 1.343.63-.685.395-.73-.335-.063.793-.663.382.114-1.465-1.265-.618.685-.395zm2.24-1.294l.672.348.045-.761.674-.39-.126 1.416 1.343.63-.685.395-.73-.335-.063.793-.663.383.114-1.466-1.265-.617.685-.396zm2.24-1.293l.672.347.045-.76.674-.39-.126 1.416 1.343.63-.685.395-.73-.335-.063.793-.662.382.113-1.465-1.265-.618.685-.395zm-18.957 18.29l23.624-13.64.717 1.242L11.7 30.815l-.717-1.242zM27.504.256a1.923 1.923 0 0 1 2.622.701l3.146 5.448 6.471 11.21a1.922 1.922 0 0 1-.702 2.621L12.495 35.563a1.922 1.922 0 0 1-2.622-.702L3.247 23.383l-2.99-5.179a1.922 1.922 0 0 1 .702-2.621l.003-.002L27.502.258l.002-.001zm10.819 18.738a.486.486 0 0 0 .178-.664L31.696 6.545c-4.79.458-10.272 2.347-15.505 5.368-4.97 2.87-9.209 6.485-12.014 10.214l6.938 12.016c.134.232.43.312.662.178l26.546-15.326zM.055 37.526h39.92v1.479H.054v-1.479z"/>
</svg>
