<svg xmlns="http://www.w3.org/2000/svg" xmlns:xlink="http://www.w3.org/1999/xlink" width="14" height="14" viewBox="0 0 20 20">
    <defs>
        <path id="a" d="M17.11 14.008v-.023a.672.672 0 0 0-.572-.683 11.366 11.366 0 0 1-2.485-.618.674.674 0 0 0-.709.148l-1.028 1.026c-.301.3-.766.363-1.136.153a13.893 13.893 0 0 1-5.214-5.205.942.942 0 0 1 .153-1.133l1.025-1.024a.674.674 0 0 0 .151-.713c-.299-.8-.506-1.631-.617-2.47a.677.677 0 0 0-.684-.58h-2.43a.676.676 0 0 0-.673.72 15.052 15.052 0 0 0 2.345 6.605 14.848 14.848 0 0 0 4.577 4.566 15.086 15.086 0 0 0 6.56 2.335.676.676 0 0 0 .736-.678v-2.426zM19 16.43a2.559 2.559 0 0 1-.831 1.897 2.577 2.577 0 0 1-1.982.662 16.984 16.984 0 0 1-7.395-2.624 16.716 16.716 0 0 1-5.147-5.135A16.941 16.941 0 0 1 1.01 3.79a2.558 2.558 0 0 1 .66-1.957A2.567 2.567 0 0 1 3.564 1h2.421A2.566 2.566 0 0 1 8.55 3.21c.094.707.267 1.4.515 2.065a2.56 2.56 0 0 1-.58 2.705l-.505.503A12.005 12.005 0 0 0 11.504 12l.508-.506a2.567 2.567 0 0 1 2.704-.577 9.49 9.49 0 0 0 2.077.515A2.562 2.562 0 0 1 19 14.02v2.411z"/>
    </defs>
    <g fill="none" fill-rule="evenodd">
        <mask id="b" fill="#fff">
            <use xlink:href="#a"/>
        </mask>
        <use fill="#000" fill-rule="nonzero" xlink:href="#a"/>
        <g fill="#fff" mask="url(#b)">
            <path d="M0 0h20v20H0z"/>
        </g>
    </g>
</svg>
