<svg xmlns="http://www.w3.org/2000/svg" xmlns:xlink="http://www.w3.org/1999/xlink" width="14" height="14" viewBox="0 0 20 20">
    <defs>
        <path id="a" d="M10.683 2.8H5.39c-.377 0-.683.322-.683.72v12.96c0 .398.306.72.683.72h9.22c.377 0 .683-.322.683-.72V7.66h-3.756c-.472 0-.854-.403-.854-.9V2.8zm1.707 1.273V5.86h1.695L12.39 4.073zM11.537 1c.226 0 .443.095.603.264l4.61 4.86c.16.168.25.397.25.636v9.72c0 1.392-1.07 2.52-2.39 2.52H5.39C4.07 19 3 17.872 3 16.48V3.52C3 2.128 4.07 1 5.39 1h6.147zm1.536 8.91c.472 0 .854.403.854.9s-.382.9-.854.9H6.927c-.472 0-.854-.403-.854-.9s.382-.9.854-.9h6.146zm0 3.24c.472 0 .854.403.854.9s-.382.9-.854.9H6.927c-.472 0-.854-.403-.854-.9s.382-.9.854-.9h6.146zm-4.61-6.48c.472 0 .854.403.854.9s-.382.9-.854.9H6.927c-.472 0-.854-.403-.854-.9s.382-.9.854-.9h1.536z"/>
    </defs>
    <g fill="none" fill-rule="evenodd">
        <mask id="b" fill="#fff">
            <use xlink:href="#a"/>
        </mask>
        <use fill="#000" fill-rule="nonzero" xlink:href="#a"/>
        <g fill="#A4A3A3" mask="url(#b)">
            <path d="M0 0h20v20H0z"/>
        </g>
    </g>
</svg>
