<svg xmlns="http://www.w3.org/2000/svg" xmlns:xlink="http://www.w3.org/1999/xlink" width="20" height="20" viewBox="0 0 20 20">
    <defs>
        <path id="a" d="M9.15 2.7a.935.935 0 1 1 0 1.87H3.538c-.368 0-.668.3-.668.669v11.223c0 .368.3.668.668.668h11.223c.369 0 .668-.3.668-.668V10.85a.935.935 0 1 1 1.87 0v5.612A2.538 2.538 0 0 1 14.762 19H3.538A2.538 2.538 0 0 1 1 16.462V5.239A2.538 2.538 0 0 1 3.538 2.7H9.15zm.575 8.846l-.252.063-.183.183.435-.246zm7.18-7.37a.765.765 0 0 0-1.082-1.081l-7.432 7.432-.36 1.443 1.442-.361 7.432-7.432zm1.323-2.404a2.636 2.636 0 0 1 0 3.727l-7.615 7.616a.935.935 0 0 1-.435.246l-3.206.801a.935.935 0 0 1-1.134-1.134l.801-3.206a.935.935 0 0 1 .246-.435l7.616-7.615a2.636 2.636 0 0 1 3.727 0z"/>
    </defs>
    <g fill="none" fill-rule="evenodd">
        <mask id="b" fill="#fff">
            <use xlink:href="#a"/>
        </mask>
        <use fill="#000" fill-rule="nonzero" xlink:href="#a"/>
        <g fill="#A4A3A3" mask="url(#b)">
            <path d="M0 0h20v20H0z"/>
        </g>
    </g>
</svg>
