<svg xmlns="http://www.w3.org/2000/svg" xmlns:xlink="http://www.w3.org/1999/xlink" width="40" height="40" viewBox="0 0 40 39">
    <defs>
        <path id="a" d="M31.149 9.935c.896.868 1.774 1.631 1.774 2.988 0 1.36-.878 2.116-1.774 2.988.347 1.228.73 2.332.011 3.524-.684 1.136-1.811 1.354-2.998 1.65-.3 1.198-.52 2.334-1.675 3.014-1.185.698-2.284.318-3.499-.027-.868.897-1.632 1.774-2.988 1.774-1.357 0-2.12-.877-2.987-1.774-1.187.337-2.277.718-3.444.06-1.171-.597-1.436-1.887-1.731-3.047-1.26-.318-2.43-.547-3.087-1.809-.6-1.15-.229-2.21.1-3.365-.897-.87-1.774-1.629-1.774-2.988 0-1.36.878-2.116 1.773-2.988-.325-1.143-.693-2.204-.11-3.345.647-1.273 1.837-1.508 3.098-1.83.297-1.188.515-2.324 1.658-3.003 1.197-.712 2.286-.334 3.516.017C17.88.877 18.643 0 20 0c1.36 0 2.116.878 2.988 1.774 1.12-.297 2.488-.655 3.55.004 1.112.691 1.33 1.808 1.624 2.983 1.23.31 2.406.547 3.065 1.765.627 1.16.255 2.236-.078 3.41zm-9.306 9.867c-.524.54-1.012.991-1.843.991-.832 0-1.319-.451-1.844-.99-.715.202-1.352.353-2.06-.047-.73-.373-.946-1.074-1.132-1.798-.762-.194-1.416-.4-1.821-1.176-.366-.702-.218-1.323-.022-2.015-.54-.526-.991-1.01-.991-1.844 0-.834.451-1.317.99-1.843-.194-.686-.34-1.305.015-2.001.4-.785 1.062-.995 1.828-1.191.18-.718.372-1.348 1.073-1.764.734-.436 1.38-.289 2.12-.08.525-.54 1.012-.992 1.844-.992.836 0 1.32.455 1.847.996.71-.182 1.482-.318 2.141.092.681.423.87 1.041 1.048 1.747.744.19 1.4.396 1.804 1.147.385.71.238 1.34.039 2.046.54.524.991 1.011.991 1.843 0 .834-.452 1.317-.991 1.844.208.74.356 1.394-.085 2.127-.42.694-1.043.885-1.758 1.065-.182.722-.375 1.353-1.083 1.77-.727.428-1.377.28-2.11.073zm1.243-1.568c.212-.147.439-1.324.537-1.689.36-.096 1.56-.326 1.695-.546.136-.221-.274-1.392-.37-1.751.264-.263 1.195-1.067 1.195-1.325 0-.257-.932-1.063-1.194-1.325.098-.366.493-1.508.373-1.744-.112-.225-1.346-.459-1.7-.554-.095-.355-.333-1.56-.54-1.692-.226-.142-1.395.27-1.757.367C21.062 7.71 20.258 6.78 20 6.78c-.259 0-1.062.931-1.325 1.195-.362-.097-1.529-.51-1.753-.369-.22.14-.447 1.332-.544 1.695-.351.093-1.6.33-1.704.56-.11.245.279 1.367.377 1.737-.262.262-1.194 1.069-1.194 1.325 0 .258.931 1.062 1.194 1.325-.098.37-.496 1.503-.373 1.747.113.217 1.349.457 1.699.55.1.371.308 1.552.547 1.696.23.13 1.388-.273 1.751-.369.264.264 1.064 1.194 1.325 1.194.257 0 1.063-.931 1.325-1.194.421.112 1.424.498 1.76.362zM7.453 20.816a.802.802 0 0 1 1.113-.22c.846.565.994.747 2.035 1.035.35.096.492.332.585.646.611 2.057 2.184 3.358 4.387 2.96.68-.122 1.172.613.833 1.194L9.473 38.233c-.386.659-1.382.448-1.485-.295l-.901-6.345-6.07 1.69c-.732.202-1.3-.633-.866-1.241-.015-.01 6.792-10.465 7.302-11.226zm29.915 10.352l-.382-.593c-1.53-2.372-3.849-5.966-5.3-8.159a6.318 6.318 0 0 1-1.435.636c-.714 2.059-2.308 3.625-4.529 3.837l5.023 8.55.706-4.975a.804.804 0 0 1 1.045-.653l4.872 1.357zm.97-1.461l1.51 2.335c.435.608-.133 1.443-.865 1.24l-6.071-1.69-.9 6.346c-.104.743-1.1.954-1.486.295L23.594 26.43c-.34-.581.153-1.316.833-1.195 2.237.406 3.814-.943 4.407-3.03a.81.81 0 0 1 .565-.575c1.04-.289 1.189-.47 2.035-1.035a.802.802 0 0 1 1.112.22c1.451 2.162 4.106 6.278 5.792 8.89zm-35.706 1.46l4.872-1.356a.804.804 0 0 1 1.045.653l.706 4.976 5.022-8.551c-2.22-.212-3.814-1.778-4.528-3.837a6.265 6.265 0 0 1-1.434-.636c-1.92 2.899-3.799 5.83-5.683 8.752zm19.817-9.103c.863.231 2.305.868 3.115.491.66-.368.938-2.228 1.128-2.94.771-.206 2.536-.464 2.931-1.11.407-.665-.273-2.354-.481-3.134.567-.567 1.981-1.68 1.981-2.448 0-.766-1.415-1.88-1.981-2.448.205-.773.85-2.408.512-3.08-.352-.697-2.186-.957-2.962-1.164-.197-.735-.478-2.536-1.095-2.922-.674-.423-2.36.262-3.148.473-.567-.567-1.682-1.983-2.45-1.983-.767 0-1.88 1.415-2.447 1.983-.79-.211-2.47-.902-3.146-.475-.637.403-.892 2.153-1.098 2.924-.781.209-2.65.468-2.978 1.199-.304.676.323 2.275.529 3.045-.566.565-1.983 1.685-1.983 2.448 0 .767 1.416 1.881 1.983 2.448-.21.782-.857 2.4-.51 3.085.345.684 2.192.954 2.96 1.159.214.803.43 2.523 1.125 2.94.673.382 2.338-.283 3.118-.49.57.569 1.675 1.982 2.448 1.982.764 0 1.884-1.416 2.449-1.983z"/>
    </defs>
    <g fill="none" fill-rule="evenodd">
        <mask id="b" fill="#fff">
            <use xlink:href="#a"/>
        </mask>
        <use fill="#000" xlink:href="#a"/>
        <g fill="#40B630" mask="url(#b)">
            <path d="M0 0h40v40H0z"/>
        </g>
    </g>
</svg>
