<svg xmlns="http://www.w3.org/2000/svg" xmlns:xlink="http://www.w3.org/1999/xlink" width="40" height="40" viewBox="0 0 20 20">
    <defs>
        <path id="a" d="M3.698 8.753a.696.696 0 0 1-.493-.206.707.707 0 0 1 0-.995l6.301-6.346a.695.695 0 0 1 .988 0l6.301 6.346a.706.706 0 0 1-.493 1.2H3.698zM15.58 7.748L10 2.13 4.42 7.75h11.16zm-8.472 5.124h5.786V10.46H7.107v2.41zm-.3-3.416h6.385a.7.7 0 0 1 .698.703v3.014a.7.7 0 0 1-.698.703H6.808a.7.7 0 0 1-.698-.703V10.16a.7.7 0 0 1 .698-.703zm.3 8.54h5.786v-2.412H7.107v2.411zm-.3-3.416h6.385a.7.7 0 0 1 .698.703v3.014a.7.7 0 0 1-.698.703H6.808a.7.7 0 0 1-.698-.703v-3.014a.7.7 0 0 1 .698-.703z"/>
    </defs>
    <g fill="none" fill-rule="evenodd">
        <mask id="b" fill="#fff">
            <use xlink:href="#a"/>
        </mask>
        <use fill="#000" fill-rule="nonzero" xlink:href="#a"/>
        <g fill="#A4A3A3" mask="url(#b)">
            <path d="M0 0h20v20H0z"/>
        </g>
    </g>
</svg>
