<svg xmlns="http://www.w3.org/2000/svg" width="214" height="28" viewBox="0 0 214 28">
    <path fill="#FFF" fill-rule="nonzero" d="M31.134.846L20.186 26.692h-8.582L.655.846h9.396l6.177 15.102L22.553.846h8.581zm29.61 0v25.846h-7.176L43.73 14.951v11.741h-8.507V.846h7.176l9.839 11.742V.846h8.507zm20.844 26.437c-2.737 0-5.203-.572-7.398-1.717-2.195-1.144-3.915-2.744-5.16-4.8-1.245-2.055-1.868-4.388-1.868-6.997s.623-4.941 1.868-6.997c1.245-2.055 2.965-3.655 5.16-4.8C76.385.828 78.85.255 81.588.255c2.515 0 4.759.443 6.732 1.33 1.973.886 3.6 2.166 4.882 3.84l-5.511 4.91c-1.603-2.018-3.49-3.027-5.66-3.027-1.824 0-3.291.584-4.401 1.754-1.11 1.169-1.665 2.738-1.665 4.707 0 1.97.555 3.539 1.665 4.708 1.11 1.17 2.577 1.754 4.402 1.754 2.17 0 4.056-1.01 5.659-3.028l5.511 4.91c-1.282 1.675-2.91 2.955-4.882 3.84-1.973.887-4.217 1.33-6.732 1.33zm30.386 0c-2.786 0-5.289-.578-7.508-1.735-2.22-1.157-3.958-2.763-5.216-4.819-1.258-2.055-1.886-4.375-1.886-6.96 0-2.584.628-4.904 1.886-6.96 1.258-2.055 2.996-3.661 5.216-4.818 2.219-1.157 4.722-1.736 7.508-1.736 2.787 0 5.29.579 7.51 1.736 2.219 1.157 3.957 2.763 5.215 4.818 1.257 2.056 1.886 4.376 1.886 6.96 0 2.585-.629 4.905-1.886 6.96-1.258 2.056-2.996 3.662-5.216 4.819s-4.722 1.735-7.509 1.735zm0-7.052c1.085 0 2.066-.265 2.941-.794.875-.53 1.572-1.28 2.09-2.252.518-.973.777-2.111.777-3.416 0-1.304-.26-2.443-.777-3.415-.518-.972-1.215-1.723-2.09-2.252-.875-.53-1.856-.794-2.94-.794-1.086 0-2.066.264-2.941.794-.876.529-1.572 1.28-2.09 2.252-.518.972-.777 2.11-.777 3.415 0 1.305.259 2.443.777 3.416.518.972 1.214 1.723 2.09 2.252.875.53 1.855.794 2.94.794zm44.147 6.461l-.074-11.778-5.622 9.452h-3.847l-5.623-9.046v11.372h-7.952V.846h7.176l8.433 13.772L156.824.846H164l.074 25.846h-7.953zM171.527.846h8.73v25.846h-8.73V.846zm41.705 0v25.846h-7.175l-9.84-11.741v11.741h-8.507V.846h7.176l9.839 11.742V.846h8.507z"/>
</svg>
