<svg xmlns="http://www.w3.org/2000/svg" xmlns:xlink="http://www.w3.org/1999/xlink" width="20" height="20" viewBox="0 0 20 20">
    <defs>
        <path id="a" d="M10 20C4.477 20 0 15.523 0 10S4.477 0 10 0s10 4.477 10 10-4.477 10-10 10zm0-1.053a8.947 8.947 0 1 0 0-17.894 8.947 8.947 0 0 0 0 17.894zm4.025-7.523a.526.526 0 0 1-.47.941l-3.79-1.894A.526.526 0 0 1 9.474 10V4.316a.526.526 0 0 1 1.052 0v5.359l3.499 1.749z"/>
    </defs>
    <g fill="none" fill-rule="evenodd" transform="matrix(-1 0 0 1 20 0)">
        <mask id="b" fill="#fff">
            <use xlink:href="#a"/>
        </mask>
        <use fill="#000" fill-rule="nonzero" xlink:href="#a"/>
        <g fill="#2F4142" mask="url(#b)">
            <path d="M0 0h20v20H0z"/>
        </g>
    </g>
</svg>
