<?xml version="1.0" encoding="UTF-8"?>
<svg width="16px" height="16px" viewBox="0 0 16 16" version="1.1" xmlns="http://www.w3.org/2000/svg" xmlns:xlink="http://www.w3.org/1999/xlink">
    <!-- Generator: Sketch 53.2 (72643) - https://sketchapp.com -->
    <title>Icon/16px/16</title>
    <desc>Created with Sketch.</desc>
    <defs>
        <path d="M5.68008713,8.01622413 C5.44818261,8.33109391 5.03590789,8.89523559 5.03590789,8.89523559 C4.8555377,9.1445075 4.93283921,9.68241004 5.12609298,9.9054428 C5.60278562,10.4958236 6.8138426,9.30194239 7.11016505,8.88211602 C7.11016505,8.88211602 7.6641592,8.081822 7.76722788,8.00310455 C7.76722788,8.00310455 8.05066675,7.38648457 8.87521618,7.55703903 C8.87521618,7.55703903 9.35190882,7.63575648 9.51939543,8.16053944 C9.51939543,8.16053944 9.67399844,8.50164837 9.37767599,8.90835517 L7.97336524,11.1386828 C7.97336524,11.1386828 6.32426638,13.7101193 5.83469015,13.9331521 C5.83469015,13.9331521 5.35799751,14.3923371 4.597866,14.7334461 C4.597866,14.7334461 3.3223911,15.599338 3.09048657,15.9404469 C3.09048657,15.9404469 2.71686261,16.1110014 2.14998488,15.874849 C1.77636092,15.7305337 0.565303938,15.1401529 0.140145637,14.5104133 C-0.0402245511,14.2480218 -0.0659917208,13.9725108 0.178796392,13.7363584 C0.436468089,13.473967 0.707023372,13.2115755 0.964695069,12.949184 C1.22236677,12.6867925 1.58310714,12.424401 1.80212809,12.1095313 C2.07268337,11.7421832 2.08556695,11.3092372 2.20151922,10.8762913 C2.48495808,9.82672536 2.8972328,8.86899645 3.33527469,7.88502839 C3.33527469,7.88502839 3.70889865,7.05849522 4.21135846,6.92729948 C4.21135846,6.92729948 4.99725713,6.50747311 5.64143638,6.35003822 L5.68008713,8.01622413 Z M15.9096535,12.6605534 C15.8967699,13.6314018 15.1237548,14.4054567 14.1832532,14.3792176 L8.14085184,14.3267393 C7.59974128,14.3267393 7.11016505,14.0643478 6.80095902,13.6445214 C7.03286355,13.3821299 7.29053524,13.0672602 7.57397411,12.6736729 C7.59974128,12.9623036 7.83164581,13.1984559 8.11508467,13.1984559 L11.9028586,13.2378146 L12.0059273,1.16780644 L8.21815335,1.14156729 C7.90894732,1.14156729 7.6641592,1.37771963 7.6641592,1.69258941 L7.62550845,5.05120038 L7.59974128,7.04537564 C7.41937109,7.17657138 7.29053524,7.33400627 7.20035015,7.46520202 C7.09728147,7.58327818 6.9040277,7.81943052 6.51752015,8.34421348 C6.50463657,8.35733306 6.49175298,8.3835722 6.4788694,8.39669178 L6.49175298,7.21593011 L6.51752015,4.01475402 L6.54328732,1.71882855 C6.54328732,0.761099644 7.329186,-0.0129552285 8.26968769,0.000164345609 L14.2992054,0.0526426421 C15.2525907,0.0526426421 16.0127222,0.839817089 15.9998386,1.81066557 L15.9096535,12.6605534 Z M14.2347875,13.2509342 C14.5439935,13.2509342 14.7887816,13.0016623 14.7758981,12.6999121 L14.8789667,1.75818728 C14.8918503,1.4433175 14.6470622,1.19404559 14.3378562,1.19404559 L13.3715873,1.18092602 L13.2685186,13.2378146 L14.2347875,13.2509342 Z M11.2457958,5.35295058 C11.2457958,6.16636418 10.6145001,6.80922331 9.81571788,6.79610374 C9.01693562,6.78298416 8.38563996,6.12700546 8.39852354,5.32671144 C8.39852354,4.98560251 8.52735939,4.6838523 8.72061316,4.4345804 C8.52735939,4.18530849 8.41140713,3.87043871 8.41140713,3.52932978 C8.42429071,2.72903576 9.06846996,2.07305706 9.85436863,2.08617663 C10.6402673,2.08617663 11.271563,2.74215534 11.2586794,3.54244936 C11.2586794,3.88355828 11.1298435,4.19842806 10.9365898,4.44769997 C11.1298435,4.69697188 11.2457958,5.01184166 11.2457958,5.35295058 Z M10.6402673,4.15906934 C10.7819867,3.98851488 10.8592883,3.77860169 10.8464047,3.52932978 C10.8464047,2.95206852 10.3954792,2.47976385 9.82860146,2.47976385 C9.26172373,2.47976385 8.79791467,2.93894895 8.79791467,3.51621021 C8.79791467,3.75236254 8.87521618,3.9753953 9.00405203,4.14594977 C9.23595656,3.9753953 9.51939543,3.88355828 9.82860146,3.88355828 C10.1249239,3.88355828 10.4083628,3.98851488 10.6402673,4.15906934 Z" id="path-1"></path>
    </defs>
    <g id="Icon/16px/16" stroke="none" stroke-width="1" fill="none" fill-rule="evenodd">
        <rect id="invisible" x="0" y="0" width="16" height="16"></rect>
        <mask id="mask-2" fill="white">
            <use xlink:href="#path-1"></use>
        </mask>
        <use id="Combined-Shape" fill="#000000" fill-rule="nonzero" xlink:href="#path-1"></use>
        <g id="Color-mask-icon" mask="url(#mask-2)" fill="#05A5AD">
            <rect id="↳-🎨-Change-color-here" x="0" y="0" width="16" height="16"></rect>
        </g>
    </g>
</svg>