<svg xmlns="http://www.w3.org/2000/svg" xmlns:xlink="http://www.w3.org/1999/xlink" width="20" height="20" viewBox="0 0 20 20">
    <defs>
        <path id="a" d="M14.99 14.087h-1.308c-.497 0-.9-.428-.9-.957 0-.528.403-.956.9-.956H18.1c.497 0 .9.428.9.956 0 .529-.403.957-.9.957h-1.31v2.956c0 .529-.402.957-.9.957-.496 0-.9-.428-.9-.957v-2.956zM9.1 5.913V2.957c0-.529.403-.957.9-.957s.9.428.9.957v2.956h1.31c.496 0 .9.428.9.957 0 .528-.404.956-.9.956H7.79c-.496 0-.9-.428-.9-.956 0-.529.404-.957.9-.957H9.1zm-5.89 6.609H1.9c-.497 0-.9-.429-.9-.957s.403-.956.9-.956h4.418c.497 0 .9.428.9.956s-.403.957-.9.957H5.01v4.521c0 .529-.403.957-.9.957s-.9-.428-.9-.957v-4.521zm1.8-4.087c0 .528-.404.956-.9.956-.498 0-.9-.428-.9-.956V2.957c0-.529.402-.957.9-.957.496 0 .9.428.9.957v5.478zm5.89 8.608c0 .529-.403.957-.9.957s-.9-.428-.9-.957V10c0-.528.403-.957.9-.957s.9.429.9.957v7.043zM16.79 10c0 .528-.402.957-.9.957-.496 0-.9-.429-.9-.957V2.957c0-.529.404-.957.9-.957.498 0 .9.428.9.957V10z"/>
    </defs>
    <g fill="none" fill-rule="evenodd">
        <mask id="b" fill="#fff">
            <use xlink:href="#a"/>
        </mask>
        <use fill="#000" fill-rule="nonzero" transform="rotate(90 10 10)" xlink:href="#a"/>  
    </g>
</svg>
