<svg xmlns="http://www.w3.org/2000/svg" xmlns:xlink="http://www.w3.org/1999/xlink" width="50" height="50" viewBox="0 0 40 40">
    <defs>
        <path id="a" d="M14.074 27.063a4.835 4.835 0 0 1-4.731 3.874 4.835 4.835 0 0 1-4.732-3.874H3.3c-1.474 0-2.635-1.25-2.886-3.109-.169-1.247-.397-3.706-.406-3.799a2.627 2.627 0 0 1 .588-1.853c.52-.626 1.305-.984 2.337-1.065 1.643-.127 7.162-.886 8.49-1.07l5.502-4.969a.947.947 0 0 1 .637-.246H34.24c.036 0 .07.002.107.006a3.488 3.488 0 0 1 2.408 1.388c.022.03.043.06.06.094a25.107 25.107 0 0 1 2.943 8.206c.224 2.28.241 5.331.242 5.46a.953.953 0 0 1-.952.957h-3.024a4.835 4.835 0 0 1-4.733 3.875 4.836 4.836 0 0 1-4.732-3.875H14.074zm0-1.905H26.56a4.835 4.835 0 0 1 4.732-3.874 4.834 4.834 0 0 1 4.733 3.874h2.057c-.02-1.08-.075-2.868-.21-4.256a23.448 23.448 0 0 0-.694-2.883H11.938c-.618.087-6.991.973-8.858 1.117-1.055.083-1.19.563-1.176.83.002.025.235 2.525.398 3.733.1.726.446 1.46 1 1.46H4.61a4.834 4.834 0 0 1 4.733-3.875 4.834 4.834 0 0 1 4.731 3.874zm-7.653.929a.975.975 0 0 1 0 .047 2.925 2.925 0 0 0 2.922 2.898c1.61 0 2.92-1.31 2.92-2.922a2.925 2.925 0 0 0-2.92-2.922 2.925 2.925 0 0 0-2.922 2.899zm21.949.05a2.926 2.926 0 0 0 2.921 2.896 2.925 2.925 0 0 0 2.922-2.923c0-1.61-1.31-2.92-2.922-2.92a2.925 2.925 0 0 0-2.921 2.947zm8.123-10.023a23.256 23.256 0 0 0-1.3-2.676 1.579 1.579 0 0 0-1.012-.58H17.93l-3.605 3.256h22.168z"/>
        <linearGradient id="c" x1="100%" x2="0%" y1="50%" y2="50%">
            <stop offset="0%" stop-color="#F88B4C"/>
            <stop offset="100%" stop-color="#F36B51"/>
        </linearGradient>
    </defs>
    <g fill="none" fill-rule="evenodd">
        <mask id="b" fill="#fff">
            <use xlink:href="#a"/>
        </mask>
        <use fill="#202020" xlink:href="#a"/>
        <g fill="url(#c)" mask="url(#b)">
            <path d="M0 0h40v40H0z"/>
        </g>
    </g>
</svg>
