<svg xmlns="http://www.w3.org/2000/svg" xmlns:xlink="http://www.w3.org/1999/xlink" width="20" height="20" viewBox="0 0 20 20" class="icon">
    <defs>
        <path id="a" d="M14.626 1H5.235C2.915 1 1 2.956 1 5.348v9.174c0 2.392 1.914 4.348 4.235 4.348h9.391c2.32 0 4.235-1.956 4.235-4.348V5.348C18.86 2.956 16.947 1 14.626 1zm0-1c2.878 0 5.235 2.409 5.235 5.348v9.174c0 2.939-2.357 5.348-5.235 5.348H5.235C2.357 19.87 0 17.46 0 14.522V5.348C0 2.408 2.357 0 5.235 0h9.391zm.322 6.157c-.157.504-.496.93-.93 1.208a4.025 4.025 0 0 0 1.208-.339 4.243 4.243 0 0 1-1.043 1.113c.008.087.008.183.008.278 0 2.844-2.113 6.122-5.974 6.122A5.86 5.86 0 0 1 5 13.574c.165.017.34.026.504.026a4.18 4.18 0 0 0 2.609-.922c-.922-.017-1.696-.643-1.965-1.495.122.026.252.034.391.034.191 0 .383-.026.557-.078-.966-.2-1.687-1.07-1.687-2.113V9c.278.165.6.26.948.27a2.174 2.174 0 0 1-.93-1.792c0-.4.103-.765.286-1.087 1.035 1.305 2.583 2.166 4.33 2.252a2.258 2.258 0 0 1-.052-.486c0-1.192.94-2.157 2.096-2.157.6 0 1.148.26 1.53.678a4.206 4.206 0 0 0 1.33-.521z"/>
    </defs>
    <g fill="none" fill-rule="evenodd">
        <mask id="b" fill="#fff">
            <use xlink:href="#a"/>
        </mask>
        <use fill="#2AA4EF" fill-rule="nonzero" xlink:href="#a"/>
        <g fill="#828282" mask="url(#b)">
            <path d="M0 0h20v20H0z"/>
        </g>
    </g>
</svg>
