<svg xmlns="http://www.w3.org/2000/svg" xmlns:xlink="http://www.w3.org/1999/xlink" width="20" height="20" viewBox="0 0 20 20">
    <defs>
        <path id="a" d="M14.681.074c2.89 0 5.245 2.415 5.245 5.363v9.2c0 2.948-2.356 5.363-5.245 5.363H5.26C2.385 20 .015 17.585.015 14.637v-9.2C.015 2.489 2.37.074 5.259.074h9.422zm3.467 14.43V5.57c0-2.044-1.63-3.718-3.63-3.718H5.438c-2 0-3.63 1.674-3.63 3.718v8.934c0 2.044 1.63 3.718 3.63 3.718h9.082c2 0 3.63-1.674 3.63-3.718zM9.97 4.919c2.77 0 5.008 2.296 5.008 5.11 0 2.815-2.237 5.112-5.008 5.112-2.77 0-5.007-2.282-5.007-5.111 0-2.815 2.237-5.111 5.007-5.111zm0 8.43c1.778 0 3.23-1.482 3.23-3.305 0-1.822-1.452-3.303-3.23-3.303-1.777 0-3.23 1.481-3.23 3.303 0 1.823 1.453 3.304 3.23 3.304zm5.274-7.542c-.621 0-1.125-.517-1.125-1.155s.504-1.156 1.125-1.156c.622 0 1.126.518 1.126 1.156 0 .638-.504 1.155-1.126 1.155z"/>
    </defs>
    <g fill="none" fill-rule="evenodd">
        <mask id="b" fill="#fff">
            <use xlink:href="#a"/>
        </mask>
        <use fill="#FFF" fill-rule="nonzero" xlink:href="#a"/>
        <g fill="#05a5ad" mask="url(#b)">
            <path d="M0 0h20v20H0z"/>
        </g>
    </g>
</svg>
