<svg xmlns="http://www.w3.org/2000/svg" xmlns:xlink="http://www.w3.org/1999/xlink" width="16" height="16" viewBox="0 0 16 16">
    <defs>
        <path id="a" d="M13.833 2.167H2.167A1.17 1.17 0 0 1 3.333 1h9.334a1.17 1.17 0 0 1 1.166 1.167zm0 1.166A1.17 1.17 0 0 1 15 4.5v9.333A1.17 1.17 0 0 1 13.833 15H2.167A1.17 1.17 0 0 1 1 13.833V4.5a1.17 1.17 0 0 1 1.167-1.167h11.666zm-7 2.334V8h2.334a2.333 2.333 0 0 0-2.334-2.333zM5.667 11.5A2.333 2.333 0 0 0 8 9.167H5.667V6.833a2.333 2.333 0 0 0 0 4.667zm7 1.167V11.5h-3.5v1.167h3.5zm0-2.334V9.167h-3.5v1.166h3.5zm0-2.333V6.833h-2.334V8h2.334z"/>
    </defs>
    <g fill="none" fill-rule="evenodd">
        <path d="M0 0h16v16H0z"/>
        <mask id="b" fill="#fff">
            <use xlink:href="#a"/>
        </mask>
        <use fill="#D7D7D7" fill-rule="nonzero" xlink:href="#a"/>
        <g fill="#05A5AD" mask="url(#b)">
            <path d="M0 0h16v16H0z"/>
        </g>
    </g>
</svg>
