<svg xmlns="http://www.w3.org/2000/svg" xmlns:xlink="http://www.w3.org/1999/xlink" width="16" height="16" viewBox="0 0 16 16">
    <defs>
        <path id="a" d="M14.775 4.173l-.992-.987.992-.987a.703.703 0 0 0-.992-.993L6.418 8.58a3.49 3.49 0 0 0-4.631.709 3.502 3.502 0 0 0 .236 4.685 3.49 3.49 0 0 0 4.68.237 3.502 3.502 0 0 0 .707-4.637l3.41-3.422.985.994c.132.13.31.204.496.202a.698.698 0 0 0 .497-1.196l-.993-.952.993-.993.985.993c.132.131.31.204.496.203a.698.698 0 0 0 .496-.203.7.7 0 0 0 0-1.028zM4.496 13.598a2.098 2.098 0 0 1-2.096-2.1c0-1.158.939-2.098 2.096-2.098 1.158 0 2.097.94 2.097 2.099 0 1.16-.939 2.1-2.097 2.1z"/>
    </defs>
    <g fill="none" fill-rule="evenodd">
        <mask id="b" fill="#fff">
            <use xlink:href="#a"/>
        </mask>
        <path fill="#05A5AD" d="M0 0h16v16H0z" mask="url(#b)"/>
    </g>
</svg>
