<svg xmlns="http://www.w3.org/2000/svg" xmlns:xlink="http://www.w3.org/1999/xlink" width="14" height="14" viewBox="0 0 14 14">
    <defs>
        <path id="a" d="M13.874 11.733c.12.234.18.409.06.642a.636.636 0 0 1-.54.292H2.57c-.24 0-.42-.117-.48-.35a.517.517 0 0 1 0-.584S3.171 10.1 3.171 8V5.667C3.172 3.1 5.337 1 7.982 1c2.646 0 4.81 2.1 4.81 4.667V8c0 2.1 1.082 3.733 1.082 3.733zm-7.936 2.1h4.088A2.414 2.414 0 0 1 7.982 15a2.414 2.414 0 0 1-2.044-1.167z"/>
    </defs>
    <g fill="none" fill-rule="evenodd">
        <path d="M0 0h16v16H0z"/>
        <mask id="b" fill="#fff">
            <use xlink:href="#a"/>
        </mask>
        <use fill="#EAEAEA" fill-rule="nonzero" xlink:href="#a"/>
        <g fill="#05A5AD" mask="url(#b)">
            <path d="M0 0h16v16H0z"/>
        </g>
    </g>
</svg>
