<svg xmlns="http://www.w3.org/2000/svg" xmlns:xlink="http://www.w3.org/1999/xlink" width="16" height="16" viewBox="0 0 16 16">
    <defs>
        <path id="a" d="M8.677 9.52a.375.375 0 1 1 0-.75.375.375 0 0 1 0 .75zm-2-2.75a.375.375 0 1 1 0-.75.375.375 0 0 1 0 .75zm7.166-2.658a.5.5 0 1 1-.697.117.497.497 0 0 1 .697-.117zm1.497-1.449c.598.165.954.779.8 1.38l-.973 3.66a2.66 2.66 0 0 1-1.101 1.43L4.99 14.368a1.129 1.129 0 0 1-1.539-.405L.326 8.577A1.13 1.13 0 0 1 .738 7.04L9.67 1.82a2.633 2.633 0 0 1 1.802-.233l3.868 1.076zM2.6 8.491a.25.25 0 1 0 .42-.271l-.135-.21a.25.25 0 1 0-.42.27l.135.21zm.475.735a.25.25 0 1 0 .42-.271l-.136-.21a.25.25 0 0 0-.42.27l.136.21zm.474.735a.25.25 0 1 0 .42-.27l-.135-.21a.25.25 0 0 0-.42.27l.135.21zm.475.736a.25.25 0 1 0 .42-.271l-.136-.21a.25.25 0 0 0-.42.27l.136.21zm.474.735a.25.25 0 1 0 .42-.27l-.135-.211a.25.25 0 1 0-.42.271l.135.21zm.813.799a.25.25 0 0 0 .074-.346l-.128-.199a.25.25 0 1 0-.42.271l.128.2a.25.25 0 0 0 .346.074zm.49-5.836a.876.876 0 1 0 1.752-.002.876.876 0 0 0-1.753.002zm.624 3.375a.25.25 0 0 0 .204-.105l2.5-3.5a.25.25 0 1 0-.406-.29l-2.5 3.5a.25.25 0 0 0 .202.395zm2.251.25a.876.876 0 1 0-.002-1.752.876.876 0 0 0 .002 1.752zm1.676-6.155a.25.25 0 1 0 .42-.271l-.136-.21a.25.25 0 1 0-.42.27l.136.21zm.474.735a.25.25 0 1 0 .42-.27l-.135-.211a.25.25 0 0 0-.42.271l.135.21zm.475.735a.25.25 0 1 0 .42-.27l-.136-.21a.25.25 0 0 0-.42.27l.136.21zm.474.736a.25.25 0 1 0 .42-.271l-.135-.21a.25.25 0 1 0-.42.27l.135.211zm.474.735a.25.25 0 1 0 .42-.27l-.135-.21a.25.25 0 1 0-.42.27l.135.21zm.813.799a.25.25 0 0 0 .075-.346l-.128-.198a.25.25 0 0 0-.42.27l.128.2a.25.25 0 0 0 .345.074zM14.367 5.1a1 1 0 1 0-1.628-1.163A1 1 0 0 0 14.367 5.1z"/>
    </defs>
    <g fill="none" fill-rule="evenodd">
        <path d="M0 0h16v16H0z"/>
        <mask id="b" fill="#fff">
            <use xlink:href="#a"/>
        </mask>
        <use fill="#D7D7D7" fill-rule="nonzero" transform="rotate(-12 8.177 8.021)" xlink:href="#a"/>
        <g fill="#05A5AD" mask="url(#b)">
            <path d="M0 0h16v16H0z"/>
        </g>
    </g>
</svg>
