<svg xmlns="http://www.w3.org/2000/svg" xmlns:xlink="http://www.w3.org/1999/xlink" width="50" height="50" viewBox="0 0 40 40">
    <defs>
        <path id="a" d="M13.333 26.048V12.714H7.061L1.905 17.87v8.178a.952.952 0 1 1 0 1.904H0v-10.87l6.272-6.272h7.061V8.79c0-.986.804-1.79 1.79-1.79h18.325c.986 0 1.79.804 1.79 1.79v2.972a.952.952 0 1 1-1.905 0V8.905H15.238v17.143h5.714a.952.952 0 1 1 0 1.904h-7.618a.952.952 0 1 1 0-1.904zm19.048 1.904a.952.952 0 1 1 0-1.904h.952v-.953a.952.952 0 1 1 1.905 0v1.067c0 .987-.804 1.79-1.79 1.79H32.38zM26.429 27a2.146 2.146 0 0 0-2.143 2.143c0 1.18.962 2.143 2.143 2.143a2.146 2.146 0 0 0 2.142-2.143A2.146 2.146 0 0 0 26.43 27zm0 6.19a4.052 4.052 0 0 1-4.048-4.047 4.052 4.052 0 0 1 4.048-4.048 4.052 4.052 0 0 1 4.047 4.048 4.052 4.052 0 0 1-4.047 4.047zM7.38 27a2.146 2.146 0 0 0-2.143 2.143c0 1.18.962 2.143 2.143 2.143a2.146 2.146 0 0 0 2.143-2.143A2.146 2.146 0 0 0 7.38 27zm0 6.19a4.052 4.052 0 0 1-4.048-4.047 4.052 4.052 0 0 1 4.048-4.048 4.052 4.052 0 0 1 4.048 4.048A4.052 4.052 0 0 1 7.38 33.19zm18.333-17.142a.952.952 0 1 1 0-1.905h9.524a.952.952 0 1 1 0 1.905h-9.524zm1.905 3.333a.952.952 0 1 1 0-1.905h9.524a.952.952 0 1 1 0 1.905h-9.524zm1.905 3.333a.952.952 0 1 1 0-1.904h9.524a.952.952 0 1 1 0 1.904h-9.524zM9.048 20.945v-3.537H7.673L6.19 18.891v2.054h2.858zM4.286 22.85v-4.748l2.599-2.599h4.067v7.347H4.286z"/>
        <linearGradient id="c" x1="100%" x2="0%" y1="50%" y2="50%">
            <stop offset="0%" stop-color="#F88B4C"/>
            <stop offset="100%" stop-color="#F36B51"/>
        </linearGradient>
    </defs>
    <g fill="none" fill-rule="evenodd">
        <mask id="b" fill="#fff">
            <use xlink:href="#a"/>
        </mask>
        <use fill="#000" xlink:href="#a"/>
        <g fill="url(#c)" mask="url(#b)">
            <path d="M0 0h40v40H0z"/>
        </g>
    </g>
</svg>
