<svg xmlns="http://www.w3.org/2000/svg" xmlns:xlink="http://www.w3.org/1999/xlink" width="14" height="14" viewBox="0 0 20 20">
    <defs>
        <path id="a" d="M10 19a9 9 0 1 1 0-18 9 9 0 0 1 0 18zm.726-5.948c2.51.194 3.913-2.506 3.57-4.999-.303-2.208-2.507-3.333-4.855-3.07-1.856.208-3.707 1.71-3.785 3.856-.047 1.31.324 2.294 1.571 2.57.541-.954-.174-1.164-.285-1.856-.458-2.83 3.264-4.762 5.212-2.785 1.348 1.37.46 5.579-1.713 5.141-2.083-.418 1.02-3.77-.643-4.427-1.351-.535-2.068 1.635-1.428 2.714-.376 1.854-1.185 3.6-.857 5.926 1.062-.77 1.42-2.245 1.714-3.784.533.324.819.661 1.5.714z"/>
    </defs>
    <g fill="none" fill-rule="evenodd">
        <mask id="b" fill="#fff">
            <use xlink:href="#a"/>
        </mask>
        <use fill="#fff" fill-rule="nonzero" xlink:href="#a"/>
        <g fill="#fff" mask="url(#b)">
            <path d="M0 0h20v20H0z"/>
        </g>
    </g>
</svg>
