<svg xmlns="http://www.w3.org/2000/svg" xmlns:xlink="http://www.w3.org/1999/xlink" width="16" height="16" viewBox="0 0 16 16">
    <defs>
        <path id="a" d="M2.522 15h10.956A1.524 1.524 0 0 0 15 13.478v-9.88c0-.84-.682-1.52-1.522-1.522h-.5v.958a1.244 1.244 0 0 1-2.49 0v-.958H5.512v.958a1.244 1.244 0 1 1-2.489 0v-.958h-.5A1.524 1.524 0 0 0 1 3.598v9.88c.001.84.682 1.521 1.522 1.522zm10.956-.933H2.522a.59.59 0 0 1-.589-.59V5.353h12.134v8.126a.59.59 0 0 1-.59.589zM11.733 1a.622.622 0 0 1 .623.622v1.412a.622.622 0 0 1-1.245 0V1.622A.622.622 0 0 1 11.733 1zM4.267 1c.343 0 .622.279.622.622v1.412a.622.622 0 0 1-1.245 0V1.622A.622.622 0 0 1 4.267 1zm5.01 5.597V7.77a.155.155 0 0 1-.154.155H6.877a.155.155 0 0 1-.155-.155V6.597a.155.155 0 0 1 .155-.155h2.246a.155.155 0 0 1 .155.155zm0 2.532v1.173a.155.155 0 0 1-.154.155H6.877a.155.155 0 0 1-.155-.155V9.13a.155.155 0 0 1 .155-.155h2.246a.155.155 0 0 1 .155.155zm0 2.532v1.173a.155.155 0 0 1-.154.155H6.877a.155.155 0 0 1-.155-.155v-1.173a.155.155 0 0 1 .155-.155h2.246a.155.155 0 0 1 .155.155zm3.656-5.064V7.77a.155.155 0 0 1-.155.155h-2.245a.155.155 0 0 1-.155-.155V6.597a.155.155 0 0 1 .155-.155h2.245a.155.155 0 0 1 .155.155zm0 2.532v1.173a.155.155 0 0 1-.155.155h-2.245a.155.155 0 0 1-.155-.155V9.13a.155.155 0 0 1 .155-.155h2.245a.155.155 0 0 1 .155.155zm-7.311 0v1.173a.155.155 0 0 1-.155.155H3.222a.155.155 0 0 1-.155-.155V9.13a.155.155 0 0 1 .155-.155h2.245a.155.155 0 0 1 .155.155zm0 2.532v1.173a.155.155 0 0 1-.155.155H3.222a.155.155 0 0 1-.155-.155v-1.173a.155.155 0 0 1 .155-.155h2.245a.155.155 0 0 1 .155.155z"/>
    </defs>
    <g fill="none" fill-rule="evenodd">
        <path d="M0 0h16v16H0z"/>
        <mask id="b" fill="#fff">
            <use xlink:href="#a"/>
        </mask>
        <use fill="#000" fill-rule="nonzero" xlink:href="#a"/>
        <g fill="#05A5AD" mask="url(#b)">
            <path d="M0 0h16v16H0z"/>
        </g>
    </g>
</svg>
