<svg xmlns="http://www.w3.org/2000/svg" width="32" height="32" viewBox="0 0 32 32">
    <path fill="#C6C6C6" fill-rule="nonzero" d="M21.941 17.135a9.563 9.563 0 0 0 3.152-10.68C23.747 2.591 20.088 0 15.976 0 11.865 0 8.205 2.591 6.86 6.455a9.563 9.563 0 0 0 3.15 10.68c-5.503 2.193-9.346 7.22-10 13.08a1.61 1.61 0 0 0 1.43 1.775 1.615 1.615 0 0 0 1.786-1.423c.73-6.472 6.234-11.365 12.782-11.365 6.549 0 12.052 4.893 12.783 11.365.09.814.785 1.428 1.608 1.423h.177a1.601 1.601 0 0 0 1.415-1.759c-.657-5.877-4.522-10.915-10.05-13.096zM15.976 16c-3.552 0-6.431-2.864-6.431-6.397 0-3.532 2.88-6.396 6.431-6.396 3.552 0 6.432 2.864 6.432 6.396a6.379 6.379 0 0 1-1.884 4.523A6.45 6.45 0 0 1 15.976 16z"/>
</svg>
