<svg xmlns="http://www.w3.org/2000/svg" xmlns:xlink="http://www.w3.org/1999/xlink" width="24" height="24" viewBox="0 0 24 24">
    <defs>
        <path id="a" d="M19.429 0a4.585 4.585 0 0 0-4.572 4.571 4.585 4.585 0 0 0 4.572 4.572A4.585 4.585 0 0 0 24 4.57 4.585 4.585 0 0 0 19.429 0zm1.714 5.143H20v1.143c0 .343-.229.571-.571.571-.343 0-.572-.228-.572-.571V5.143h-1.143c-.343 0-.571-.229-.571-.572 0-.342.228-.571.571-.571h1.143V2.857c0-.343.229-.571.572-.571.342 0 .571.228.571.571V4h1.143c.343 0 .571.229.571.571 0 .343-.228.572-.571.572zm-6.686 8.743a.552.552 0 0 1 .8 0l1.886 1.885v4.8H3.429v-7.085l2.457-2.457a.552.552 0 0 1 .8 0L12 16.343l2.457-2.457zM12.571 8a2.292 2.292 0 0 1 2.286 2.286 2.292 2.292 0 0 1-2.286 2.285 2.292 2.292 0 0 1-2.285-2.285A2.292 2.292 0 0 1 12.57 8zm6.858 2.286c.4 0 .8-.057 1.142-.115v12.686c0 .629-.514 1.143-1.142 1.143H1.143A1.146 1.146 0 0 1 0 22.857V4.571C0 3.943.514 3.43 1.143 3.43h12.686a7.034 7.034 0 0 0-.115 1.142c0 .4.057.8.115 1.143H2.286v16h16V10.171c.343.058.743.115 1.143.115z"/>
    </defs>
    <g fill="none" fill-rule="evenodd">
        <mask id="b" fill="#fff">
            <use xlink:href="#a"/>
        </mask>
        <use fill="#000" fill-rule="nonzero" xlink:href="#a"/>
        <g fill="#05A5AD" mask="url(#b)">
            <path d="M0 0h24v24H0z"/>
        </g>
        <path d="M0 0h24v24H0z" mask="url(#b)"/>
    </g>
</svg>
