<svg xmlns="http://www.w3.org/2000/svg" xmlns:xlink="http://www.w3.org/1999/xlink" width="14" height="14" viewBox="0 0 20 20">
    <defs>
        <path id="a" d="M2.818 7.273h14.546V4.545a.91.91 0 0 0-.91-.909h-1.818v.91a.91.91 0 1 1-1.818 0v-.91H7.364v.91a.91.91 0 0 1-1.819 0v-.91H3.727a.91.91 0 0 0-.909.91v2.727zm0 1.818v8.182c0 .502.407.909.91.909h12.727a.91.91 0 0 0 .909-.91V9.092H2.818zm4.546-7.273h5.454V.91a.91.91 0 0 1 1.818 0v.91h1.819a2.727 2.727 0 0 1 2.727 2.726v12.728A2.727 2.727 0 0 1 16.455 20H3.727A2.727 2.727 0 0 1 1 17.273V4.545a2.727 2.727 0 0 1 2.727-2.727h1.818V.91a.91.91 0 1 1 1.819 0v.91z"/>
    </defs>
    <g fill="none" fill-rule="evenodd">
        <mask id="b" fill="#fff">
            <use xlink:href="#a"/>
        </mask>
        <use fill="#000" fill-rule="nonzero" xlink:href="#a"/>
        <g fill="#A4A4A4" mask="url(#b)">
            <path d="M0 0h20v20H0z"/>
        </g>
    </g>
</svg>
