<svg xmlns="http://www.w3.org/2000/svg" xmlns:xlink="http://www.w3.org/1999/xlink" width="14" height="14" viewBox="0 0 20 20">
    <defs>
        <path id="a" d="M18.51 2.276c-.72.428-1.5.75-2.342.918A3.655 3.655 0 0 0 13.474 2C11.44 2 9.786 3.699 9.786 5.796c0 .29.03.582.092.857C6.8 6.5 4.077 4.985 2.255 2.69a3.836 3.836 0 0 0-.505 1.913c0 1.316.658 2.48 1.638 3.153a3.415 3.415 0 0 1-1.669-.474v.046c0 1.836 1.27 3.367 2.97 3.719a3.443 3.443 0 0 1-.98.138c-.245 0-.474-.016-.689-.062.475 1.5 1.837 2.602 3.46 2.633a7.357 7.357 0 0 1-4.592 1.623c-.291 0-.597-.016-.888-.046a10.314 10.314 0 0 0 5.663 1.699c6.796 0 10.516-5.77 10.516-10.776 0-.168 0-.337-.016-.49A7.469 7.469 0 0 0 19 3.806a7.085 7.085 0 0 1-2.128.597 3.927 3.927 0 0 0 1.638-2.127z"/>
    </defs>
    <g fill="none" fill-rule="evenodd">
        <mask id="b" fill="#fff">
            <use xlink:href="#a"/>
        </mask>
        <use fill="#FFF" xlink:href="#a"/>
        <g fill="#fff" mask="url(#b)">
            <path d="M0 0h20v20H0z"/>
        </g>
    </g>
</svg>
