<svg xmlns="http://www.w3.org/2000/svg" xmlns:xlink="http://www.w3.org/1999/xlink" width="24" height="24" viewBox="0 0 24 24">
    <defs>
        <path id="a" d="M7.45 5.6v-.8c0-1.546 1.24-2.8 2.77-2.8h3.56c1.53 0 2.77 1.254 2.77 2.8v.8h3.461c.546 0 .989.448.989 1s-.443 1-.989 1h-.791v11.6c0 1.546-1.24 2.8-2.77 2.8h-8.9c-1.53 0-2.77-1.254-2.77-2.8V7.6H3.99A.995.995 0 0 1 3 6.6c0-.552.443-1 .989-1h3.462zm1.979 0h5.142v-.8c0-.442-.354-.8-.79-.8H10.22a.796.796 0 0 0-.791.8v.8zm-.198 5.5v5.4c0 .552.443 1 .989 1a.995.995 0 0 0 .989-1v-5.4c0-.552-.443-1-.99-1a.995.995 0 0 0-.988 1zm3.56 0v5.4c0 .552.443 1 .99 1a.995.995 0 0 0 .988-1v-5.4c0-.552-.443-1-.989-1a.995.995 0 0 0-.989 1z"/>
    </defs>
    <g fill="none" fill-rule="evenodd">
        <path d="M0 0h24v24H0z"/>
        <mask id="b" fill="#fff">
            <use xlink:href="#a"/>
        </mask>
        <use fill="#000" fill-rule="nonzero" xlink:href="#a"/>
        <g fill="#05A5AD" mask="url(#b)">
            <path d="M0 0h24v24H0z"/>
        </g>
    </g>
</svg>
