<svg xmlns="http://www.w3.org/2000/svg" xmlns:xlink="http://www.w3.org/1999/xlink" width="50" height="50" viewBox="0 0 40 40">
    <defs>
        <path id="a" d="M24.788 22.672a6.96 6.96 0 0 1 2.4 5.262 6.983 6.983 0 0 1-6.974 6.975 6.983 6.983 0 0 1-6.975-6.975 6.96 6.96 0 0 1 2.402-5.262H5.775v13.582h28.88V22.672h-9.867zm11.579-5.796v20.235a.856.856 0 0 1-.857.856H4.92a.856.856 0 0 1-.856-.856V20.107a.854.854 0 0 1-.891-.387c-1.168-1.87-1.465-3.56-.881-5.022 1.248-3.13 6.083-4.38 10.757-5.588 2.249-.582 4.372-1.13 5.763-1.827.758-.378 1.587-.818 2.455-1.279C25.311 3.86 29.9 1.43 32.658 2.12c2.135.534 3.656 1.696 4.524 3.457 2.158 4.377-.623 10.89-.743 11.165a.864.864 0 0 1-.072.134zm-1.418-1.015c.427-1.077 2.318-6.245.695-9.53-.644-1.305-1.756-2.139-3.4-2.55-2.141-.526-6.78 1.937-10.176 3.737-.88.467-1.723.914-2.49 1.297-1.554.777-3.763 1.348-6.1 1.953-4.064 1.05-8.67 2.241-9.597 4.565-.318.799-.191 1.74.39 2.863a.854.854 0 0 1 .648-.296h.672v-2.202c0-.474.383-.857.857-.857h5.099c.473 0 .856.383.856.857V17.9h.836v-1.183c0-.473.384-.856.857-.856h20.853zM10.69 17.9v-1.346H7.304V17.9h3.386zm9.524 3.06h14.44v-3.386H14.952v1.182a.856.856 0 0 1-.856.857h-8.32v1.346h14.438zm0 1.712a5.268 5.268 0 0 0-5.262 5.262c0 2.9 2.36 5.262 5.262 5.262a5.268 5.268 0 0 0 5.262-5.262 5.268 5.268 0 0 0-5.262-5.262zm0 4.079a1.184 1.184 0 1 0 .002 2.367 1.184 1.184 0 0 0-.002-2.367zm0 4.08a2.9 2.9 0 0 1-2.896-2.897 2.9 2.9 0 0 1 2.896-2.896 2.9 2.9 0 0 1 2.897 2.896 2.9 2.9 0 0 1-2.897 2.896zm9.688-5.1a.162.162 0 0 0-.163.163c0 .091.073.164.163.164h1.019a.163.163 0 1 0 0-.327H29.9zm1.019 2.04H29.9a1.877 1.877 0 0 1 0-3.752h1.02c1.034 0 1.876.84 1.876 1.875a1.879 1.879 0 0 1-1.876 1.877z"/>
        <linearGradient id="c" x1="100%" x2="0%" y1="50%" y2="50%">
            <stop offset="0%" stop-color="#F88B4C"/>
            <stop offset="100%" stop-color="#F36B51"/>
        </linearGradient>
    </defs>
    <g fill="none" fill-rule="evenodd">
        <mask id="b" fill="#fff">
            <use xlink:href="#a"/>
        </mask>
        <use fill="#202020" xlink:href="#a"/>
        <g fill="url(#c)" mask="url(#b)">
            <path d="M0 0h40v40H0z"/>
        </g>
    </g>
</svg>
