<svg xmlns="http://www.w3.org/2000/svg" xmlns:xlink="http://www.w3.org/1999/xlink" width="50" height="50" viewBox="0 0 40 40">
    <defs>
        <path id="a" d="M31.163 21.168a.857.857 0 0 1-.226-.162l-.8-.8a.858.858 0 0 1 1.212-1.212l.8.8a.855.855 0 0 1 .162.226l3.62-3.62-2.896-2.895c-2.011 1.134-4.614.683-6.103-1.176a4.767 4.767 0 0 1-.438-5.365L23.6 4.069 8.838 18.832c.08.04.157.094.225.162l.8.8a.858.858 0 0 1-1.211 1.212l-.801-.8a.855.855 0 0 1-.162-.226l-3.62 3.62 2.896 2.895a4.806 4.806 0 0 1 6.103 1.176 4.767 4.767 0 0 1 .438 5.365l2.894 2.895 14.763-14.763zM16.4 38a.853.853 0 0 1-.606-.251l-4-4a.857.857 0 0 1-.062-1.143 3.068 3.068 0 0 0 0-3.862 3.089 3.089 0 0 0-4.338-.475.856.856 0 0 1-1.143-.064l-4-3.999a.857.857 0 0 1 0-1.212L22.994 2.251a.856.856 0 0 1 1.212 0l4 4c.309.309.336.803.063 1.143a3.066 3.066 0 0 0 0 3.862 3.087 3.087 0 0 0 4.337.476.856.856 0 0 1 1.143.063l4 3.999a.853.853 0 0 1 0 1.212L17.006 37.749A.853.853 0 0 1 16.4 38zM22 11.714a.855.855 0 0 1-.606-.251l-.8-.8a.858.858 0 0 1 1.212-1.212l.8.8A.856.856 0 0 1 22 11.714zm3.2 3.143a.858.858 0 0 1-.606-.251l-.8-.8a.856.856 0 1 1 1.213-1.213l.799.801a.856.856 0 0 1-.606 1.463zm3.2 3.2a.851.851 0 0 1-.606-.251l-.8-.8a.858.858 0 0 1 1.212-1.212l.8.8a.858.858 0 0 1-.606 1.463zm-16 6.4a.851.851 0 0 1-.605-.251l-.8-.8a.858.858 0 0 1 1.211-1.212l.8.8a.858.858 0 0 1-.605 1.463zm3.2 3.2a.855.855 0 0 1-.606-.25l-.8-.801a.856.856 0 1 1 1.213-1.212l.799.8a.856.856 0 0 1-.606 1.464zm3.2 3.143a.855.855 0 0 1-.606-.251l-.8-.8a.856.856 0 1 1 1.212-1.212l.8.8A.858.858 0 0 1 18.8 30.8z"/>
        <linearGradient id="c" x1="100%" x2="0%" y1="50%" y2="50%">
            <stop offset="0%" stop-color="#F88B4C"/>
            <stop offset="100%" stop-color="#F36B51"/>
        </linearGradient>
    </defs>
    <g fill="none" fill-rule="evenodd">
        <mask id="b" fill="#fff">
            <use xlink:href="#a"/>
        </mask>
        <use fill="#202020" xlink:href="#a"/>
        <g fill="url(#c)" mask="url(#b)">
            <path d="M0 0h40v40H0z"/>
        </g>
    </g>
</svg>
