<svg xmlns="http://www.w3.org/2000/svg" xmlns:xlink="http://www.w3.org/1999/xlink" width="20" height="20" viewBox="0 0 20 20">
    <defs>
        <path id="a" d="M16.702 16.04a5.09 5.09 0 0 0-1.134-1.052 6.825 6.825 0 0 0-.957-.55 13.351 13.351 0 0 1-1.453 2.864c-.37.555-.76 1.055-1.156 1.497a9.013 9.013 0 0 0 4.7-2.76zm.634-.787a8.974 8.974 0 0 0 1.671-4.742H15.37a12.977 12.977 0 0 1-.459 2.989c.44.2.844.428 1.213.683.53.365.928.735 1.212 1.07zm-6.825-1.699v5.365c.113-.102.255-.237.419-.405.481-.493.963-1.079 1.414-1.754a12.363 12.363 0 0 0 1.358-2.683c-.907-.3-1.966-.483-3.191-.523zm0-.979c1.322.04 2.48.24 3.483.568.224-.835.36-1.713.397-2.632h-3.88v2.064zM3.297 16.04a9.013 9.013 0 0 0 4.7 2.76 13.387 13.387 0 0 1-1.155-1.497 13.351 13.351 0 0 1-1.454-2.863 6.825 6.825 0 0 0-.957.549 5.09 5.09 0 0 0-1.134 1.051zm-.633-.786a6.212 6.212 0 0 1 1.212-1.07c.369-.255.773-.484 1.212-.683a12.977 12.977 0 0 1-.459-2.99H.992a8.974 8.974 0 0 0 1.672 4.743zm6.847-1.7c-1.235.039-2.3.222-3.213.524.342.954.802 1.849 1.357 2.683.45.675.933 1.261 1.415 1.754.174.179.324.32.44.425v-5.386zm0-.978V10.51H5.608c.037.92.174 1.797.397 2.632 1.009-.33 2.174-.53 3.506-.568zm7.191-8.614a9.014 9.014 0 0 0-4.7-2.76c.395.443.786.942 1.156 1.497.593.89 1.085 1.844 1.453 2.863.346-.164.665-.347.957-.549a5.09 5.09 0 0 0 1.134-1.051zm.634.786a6.212 6.212 0 0 1-1.212 1.07c-.37.255-.773.484-1.213.683.264.953.423 1.957.46 3.01h3.637a8.974 8.974 0 0 0-1.672-4.763zM10.51 6.446c1.225-.04 2.284-.223 3.19-.523a12.363 12.363 0 0 0-1.357-2.683 12.196 12.196 0 0 0-1.414-1.754 9.458 9.458 0 0 0-.42-.405v5.365zm0 .979V9.51h3.881a12.013 12.013 0 0 0-.398-2.654c-1.003.329-2.16.527-3.483.568zM3.297 3.96l.075.093c.264.324.613.65 1.06.958.291.202.61.385.956.55.369-1.02.86-1.975 1.454-2.864.37-.555.76-1.054 1.156-1.497a9.014 9.014 0 0 0-4.7 2.76zm-.633.786A8.973 8.973 0 0 0 .99 9.511h3.637a12.98 12.98 0 0 1 .46-3.01c-.44-.2-.843-.43-1.212-.684a6.212 6.212 0 0 1-1.212-1.07zm6.847 1.7V1.06a9.267 9.267 0 0 0-.441.425A12.196 12.196 0 0 0 7.655 3.24a12.363 12.363 0 0 0-1.357 2.683c.912.302 1.978.485 3.213.524zm0 .978c-1.332-.039-2.497-.237-3.506-.568a12.013 12.013 0 0 0-.398 2.654h3.904V7.425zM10 0c5.523 0 10 4.477 10 10s-4.477 10-10 10C4.476 20 0 15.523 0 10-.001 4.477 4.476 0 10 0z"/>
    </defs>
    <g fill="none" fill-rule="evenodd">
        <mask id="b" fill="#fff">
            <use xlink:href="#a"/>
        </mask>
        <use fill="#000" fill-rule="nonzero" xlink:href="#a"/>
        <g fill="#2F4142" mask="url(#b)">
            <path d="M0 0h20v20H0z"/>
        </g>
    </g>
</svg>
