<svg xmlns="http://www.w3.org/2000/svg" xmlns:xlink="http://www.w3.org/1999/xlink" width="16" height="16" viewBox="0 0 16 16">
    <defs>
        <path id="a" d="M11.367 11.215c-2.534 0-4.6-2.055-4.634-4.607C6.733 4.055 8.833 2 11.367 2 13.933 2 16 4.055 16 6.608c0 2.552-2.1 4.607-4.633 4.607zm1.266-6c-.2 0-.333.133-.333.332s.133.331.333.331h.534c.2 0 .333-.132.333-.331s-.133-.332-.333-.332h-.534zm-1.2 3.15c-.533 0-1.033-.232-1.4-.564a.323.323 0 0 0-.466 0 .32.32 0 0 0 0 .464 2.63 2.63 0 0 0 1.866.763c.7 0 1.367-.266 1.867-.763a.32.32 0 0 0 0-.464.323.323 0 0 0-.467 0 1.97 1.97 0 0 1-1.4.564zM9.6 5.215c-.2 0-.333.133-.333.332s.133.331.333.331h.533c.2 0 .334-.132.334-.331s-.134-.332-.334-.332H9.6zM4.633 14C2.067 14 0 11.912 0 9.392c0-2.52 2.067-4.607 4.6-4.574.6 0 1.167.132 1.7.331-.167.464-.233.961-.233 1.492 0 .464.066.961.2 1.392h-.4c-.2 0-.334.133-.334.332s.134.331.334.331H6.4c.033 0 .067-.033.1-.033a5.423 5.423 0 0 0 2.367 2.586C8.167 12.906 6.533 14 4.633 14zm1.834-3.05c-.5-.53-1.167-.762-1.867-.762s-1.367.265-1.867.762a.32.32 0 0 0 0 .464.323.323 0 0 0 .467 0 1.97 1.97 0 0 1 1.4-.563 1.97 1.97 0 0 1 1.4.563.323.323 0 0 0 .467 0 .32.32 0 0 0 0-.464zM2.833 8a.333.333 0 0 0-.333.331c0 .2.133.332.333.332h.534c.2 0 .333-.133.333-.332C3.7 8.133 3.567 8 3.367 8h-.534z"/>
    </defs>
    <g fill="none" fill-rule="evenodd">
        <path d="M0 0h16v16H0z"/>
        <mask id="b" fill="#fff">
            <use xlink:href="#a"/>
        </mask>
        <use fill="#D7D7D7" fill-rule="nonzero" xlink:href="#a"/>
        <g fill="#05A5AD" mask="url(#b)">
            <path d="M0 0h16v16H0z"/>
        </g>
    </g>
</svg>
