<svg xmlns="http://www.w3.org/2000/svg" xmlns:xlink="http://www.w3.org/1999/xlink" width="20" height="20" viewBox="0 0 20 20">
    <defs>
        <path id="a" d="M6.356 4.8v-.4c0-1.325 1.03-2.4 2.302-2.4h2.684c1.271 0 2.302 1.075 2.302 2.4v.4h2.397c.53 0 .959.448.959 1s-.43 1-.959 1h-.383v8.8c0 1.325-1.03 2.4-2.302 2.4H6.644c-1.271 0-2.302-1.075-2.302-2.4V6.8H3.96c-.53 0-.959-.448-.959-1s.43-1 .959-1h2.397zm1.918 0h3.452v-.4c0-.22-.172-.4-.384-.4H8.658a.392.392 0 0 0-.384.4v.4zm5.466 2H6.26v8.8c0 .22.172.4.384.4h6.712c.212 0 .384-.18.384-.4V6.8zM7.699 9.3c0-.552.429-1 .959-1s.958.448.958 1v4.2c0 .552-.429 1-.958 1-.53 0-.96-.448-.96-1V9.3zm2.685 0c0-.552.429-1 .958-1 .53 0 .96.448.96 1v4.2c0 .552-.43 1-.96 1s-.958-.448-.958-1V9.3z"/>
    </defs>
    <g fill="none" fill-rule="evenodd">
        <mask id="b" fill="#fff">
            <use xlink:href="#a"/>
        </mask>
        <path fill="#F92323" d="M0 0h20v20H0z" mask="url(#b)"/>
    </g>
</svg>
