<svg xmlns="http://www.w3.org/2000/svg" xmlns:xlink="http://www.w3.org/1999/xlink" width="16" height="16" viewBox="0 0 16 16">
    <defs>
        <path id="a" d="M8.447 3.49l2.12 2.171a.354.354 0 0 1 .075.118h-2.31V3.414a.303.303 0 0 1 .115.075zm-.781 2.63c0 .19.149.342.333.342h2.668v8.197c0 .187-.15.341-.334.341h-8A.336.336 0 0 1 2 14.659V3.732c0-.192.147-.342.333-.342h5.333v2.73zm1 6.498a.337.337 0 0 0 .333-.341.337.337 0 0 0-.333-.341H3.999a.337.337 0 0 0-.333.341c0 .189.149.341.333.341h4.667zm0-2.048a.337.337 0 0 0 .333-.342.337.337 0 0 0-.333-.341H3.999a.337.337 0 0 0-.333.341c0 .189.149.342.333.342h4.667zm.333-2.39a.337.337 0 0 0-.333-.342H3.999a.337.337 0 0 0-.333.341c0 .189.149.342.333.342h4.667a.337.337 0 0 0 .333-.342zm2-4.45c0 .189.149.342.333.342H14v8.196c0 .188-.15.342-.333.342h-2.334V5.9c0-.271-.105-.528-.295-.722L8.932 3.021a.979.979 0 0 0-.719-.314h-2.88V1.341c0-.19.147-.341.334-.341h5.332v2.73zM11.78 1.1l2.12 2.172a.354.354 0 0 1 .075.118h-2.31V1.024a.303.303 0 0 1 .115.075z"/>
    </defs>
    <g fill="none" fill-rule="evenodd">
        <path d="M0 0h16v16H0z"/>
        <mask id="b" fill="#fff">
            <use xlink:href="#a"/>
        </mask>
        <use fill="#D7D7D7" fill-rule="nonzero" xlink:href="#a"/>
        <g fill="#05A5AD" mask="url(#b)">
            <path d="M0 0h16v16H0z"/>
        </g>
    </g>
</svg>
