<svg xmlns="http://www.w3.org/2000/svg" xmlns:xlink="http://www.w3.org/1999/xlink" width="20" height="20" viewBox="0 0 20 20" class="icon">
    <defs>
        <linearGradient id="b" x1="92.96%" x2="7.037%" y1="92.948%" y2="7.025%">
            <stop offset="0%" stop-color="#FEC053"/>
            <stop offset="32.73%" stop-color="#F2203E"/>
            <stop offset="64.85%" stop-color="#B729A8"/>
            <stop offset="100%" stop-color="#5342D6"/>
        </linearGradient>
        <path id="a" d="M1 5.258v9.432c0 2.333 1.966 4.258 4.371 4.258h9.205c2.405 0 4.372-1.925 4.372-4.258V5.258C18.948 2.924 16.98 1 14.576 1H5.368C2.96.993 1 2.913 1 5.258zm-1 0C0 2.358 2.41-.01 5.371 0h9.205c2.952 0 5.372 2.367 5.372 5.258v9.432c0 2.89-2.42 5.258-5.372 5.258H5.371C2.42 19.948 0 17.58 0 14.69V5.258zm12.655-1.214c1.703 0 3.092 1.423 3.092 3.161v5.424c0 1.738-1.389 3.161-3.092 3.161H7.1c-1.694 0-3.091-1.423-3.091-3.161V7.205c0-1.738 1.388-3.161 3.091-3.161h5.555zm2.044 8.506V7.284c0-1.205-.961-2.192-2.14-2.192H7.205c-1.179 0-2.14.987-2.14 2.192v5.266c0 1.205.961 2.192 2.14 2.192h5.354c1.179 0 2.14-.987 2.14-2.192zM9.878 6.9c1.633 0 2.952 1.353 2.952 3.013s-1.32 3.013-2.952 3.013c-1.633 0-2.952-1.345-2.952-3.013 0-1.66 1.319-3.013 2.952-3.013zm0 4.969c1.048 0 1.904-.873 1.904-1.948 0-1.074-.856-1.947-1.904-1.947s-1.904.873-1.904 1.947c0 1.075.856 1.948 1.904 1.948zm3.109-4.445a.673.673 0 0 1-.664-.682c0-.376.297-.68.664-.68.366 0 .664.304.664.68a.673.673 0 0 1-.664.682z"/>
    </defs>
    <g fill="none" fill-rule="evenodd">
        <mask id="c" fill="#fff">
            <use xlink:href="#a"/>
        </mask>
        <use fill="url(#b)" fill-rule="nonzero" xlink:href="#a"/>
        <g fill="#828282" mask="url(#c)">
            <path d="M0 0h20v20H0z"/>
        </g>
    </g>
</svg>
