<svg xmlns="http://www.w3.org/2000/svg" xmlns:xlink="http://www.w3.org/1999/xlink" width="50" height="50" viewBox="0 0 40 40">
    <defs>
        <path id="a" d="M27.204 18.707a12.58 12.58 0 0 1-4.924-1.01c-.437-.246-.762-.723-.673-1.068.104-.41.968-1.105 3.536-1.105h12.673c-.555 1.354-2.195 3.174-7.594 3.174h-.063c5.426 0 9.841 4.415 9.841 9.842a.952.952 0 0 1-.952.952h-1.663a6.041 6.041 0 0 1-5.957 5.08 6.041 6.041 0 0 1-5.956-5.08H18.73a.951.951 0 0 1-.948-.87 9.448 9.448 0 0 1-2.02-.4h-1.77c.03.605-.03 1.215-.18 1.804a5.99 5.99 0 0 1-2.77 3.693 5.992 5.992 0 0 1-4.57.655 6.043 6.043 0 0 1-4.528-6.152H.952A.95.95 0 0 1 0 27.24c.076-2.515 1.699-7.272 7.302-7.272h2.857V9.492C10.16 7.167 12.398 6 13.651 6h2.54a.952.952 0 1 1 0 1.905h-2.54c-.154 0-1.587.366-1.587 1.587v11.555c0 1.686 1.503 5.264 5.882 5.676.83-4.43 4.638-7.823 9.258-8.016zm-24.207 7.61a.934.934 0 0 1 .095 0h9.485c-1.414-1.387-2.129-3.125-2.345-4.444h-2.93c-3.823 0-4.941 2.877-5.266 4.444h.961zm.855 1.905a4.135 4.135 0 0 0 3.093 4.306 4.132 4.132 0 0 0 5.139-4.306H3.852zm23.56 1.27a4.134 4.134 0 0 0 4.016 3.175 4.134 4.134 0 0 0 4.016-3.175h-8.031zm10.626-1.904c-.471-3.93-3.825-6.985-7.879-6.985h-2.54c-4.054 0-7.408 3.055-7.879 6.985h18.298zm-30.102-12.7a.952.952 0 0 1-.952-.952v-3.81a.952.952 0 1 1 1.905 0v3.81a.952.952 0 0 1-.953.953z"/>
        <linearGradient id="c" x1="100%" x2="0%" y1="50%" y2="50%">
            <stop offset="0%" stop-color="#F88B4C"/>
            <stop offset="100%" stop-color="#F36B51"/>
        </linearGradient>
    </defs>
    <g fill="none" fill-rule="evenodd">
        <mask id="b" fill="#fff">
            <use xlink:href="#a"/>
        </mask>
        <use fill="#202020" xlink:href="#a"/>
        <g fill="url(#c)" mask="url(#b)">
            <path d="M0 0h40v40H0z"/>
        </g>
    </g>
</svg>
