<svg xmlns="http://www.w3.org/2000/svg" xmlns:xlink="http://www.w3.org/1999/xlink" width="16" height="16" viewBox="0 0 16 16">
    <defs>
        <path id="a" d="M12.9 6.6a.7.7 0 0 0-.7.7v2.366L11.164 8.63a1.953 1.953 0 0 0-2.751 0l-.49.497-1.736-1.743a1.953 1.953 0 0 0-2.751 0L2.4 8.427V4.5a.7.7 0 0 1 .7-.7h5.6a.7.7 0 0 0 0-1.4H3.1A2.1 2.1 0 0 0 1 4.5v8.554A1.953 1.953 0 0 0 2.946 15h8.708c.19-.002.378-.03.56-.084a1.918 1.918 0 0 0 1.4-1.855V7.3a.7.7 0 0 0-.714-.7zm-9.8 7a.7.7 0 0 1-.7-.7v-2.499l2.023-2.023a.546.546 0 0 1 .77 0l5.229 5.222H3.1zm9.1-.7a.7.7 0 0 1-.126.378L8.91 10.1l.497-.49a.539.539 0 0 1 .77 0l2.023 2.037V12.9zm2.1-10.5h-.7v-.7a.7.7 0 0 0-1.4 0v.7h-.7a.7.7 0 0 0 0 1.4h.7v.7a.7.7 0 0 0 1.4 0v-.7h.7a.7.7 0 0 0 0-1.4z"/>
    </defs>
    <g fill="none" fill-rule="evenodd">
        <mask id="b" fill="#fff">
            <use xlink:href="#a"/>
        </mask>
        <path fill="#05A5AD" d="M0 0h16v16H0z" mask="url(#b)"/>
    </g>
</svg>
