<svg xmlns="http://www.w3.org/2000/svg" xmlns:xlink="http://www.w3.org/1999/xlink" width="20" height="20" viewBox="0 0 20 20">
    <defs>
        <path id="a" d="M14.461 11.808l-.875-.875.66-.66.876.874 3.557-3.557-1.169-1.17c-.42.313-.852.432-1.484.432-1.641 0-2.878-1.237-2.878-2.878 0-.632.12-1.065.431-1.484L12.41 1.32 8.853 4.879l.875.875-.66.66-.876-.874-6.871 6.871 1.169 1.17c.42-.313.852-.432 1.484-.432 1.641 0 2.878 1.237 2.878 2.878 0 .632-.12 1.065-.431 1.484l1.169 1.17 6.871-6.872zm2.74-6.356l.33-.33L20 7.59 7.59 20l-2.468-2.468.33-.33c.367-.368.466-.612.466-1.176 0-1.125-.819-1.944-1.944-1.944-.564 0-.808.099-1.176.466l-.33.33L0 12.41 12.41 0l2.468 2.468-.33.33c-.367.368-.466.612-.466 1.176 0 1.125.819 1.944 1.944 1.944.564 0 .808-.099 1.176-.466zM9.67 7.016l.66-.66 1.205 1.205-.66.66L9.67 7.016zm2.109 2.11l.66-.661 1.205 1.205-.66.66-1.205-1.205z"/>
    </defs>
    <g fill="none" fill-rule="evenodd">
        <mask id="b" fill="#fff">
            <use xlink:href="#a"/>
        </mask>
        <use fill="#000" fill-rule="nonzero" xlink:href="#a"/>
        <g fill="#2F4142" mask="url(#b)">
            <path d="M0 0h20v20H0z"/>
        </g>
    </g>
</svg>
