<svg xmlns="http://www.w3.org/2000/svg" width="109" height="16" viewBox="0 0 109 16">
    <g fill="#FFF" fill-rule="nonzero">
        <path d="M7.754 0c4.284 0 7.756 3.581 7.756 7.999 0 4.418-3.472 7.999-7.756 7.999H.97c-.535 0-.97-.447-.97-1V1c0-.552.435-1 .97-1h6.784zm4.542 4.484c-.12.147-.21.537-.047.68.163.142.521-.022.642-.168.12-.145.085-.38-.08-.523-.164-.142-.395-.136-.515.01zm-1.317-1.2c-.116.21-.149.711.084.85.232.137.639-.143.755-.35.117-.209.022-.491-.209-.626-.23-.136-.513-.082-.63.126zm-1.807-.72v.002c-.095.272-.035.873.27.985.304.111.727-.304.824-.576.097-.272-.07-.582-.373-.696-.303-.115-.624.014-.721.286zm-1.528-.502v.002c-.38 0-.687.276-.687.616 0 .341.307.981.687.981.38 0 .689-.639.689-.98 0-.343-.309-.619-.689-.619zm5.22 6.754c.086-.29.13-.59.13-.893a3.05 3.05 0 0 0-.271-1.268l-.021-.042c-.018-.038-.037-.074-.057-.113a4.858 4.858 0 0 0-.163-.278c-.835-1.337-2.237-2.183-3.777-2.28-.02-.003-.042-.003-.063-.003a.916.916 0 0 0-.105-.004h-.01c-1.067.006-1.928.9-1.929 2a2.008 2.008 0 0 0 .11.668c.258.808.312 1.67.157 2.505-.008.046-.015.092-.027.138a4.65 4.65 0 0 1-.039.17l-.039.144a3.86 3.86 0 0 1-.09.29c-.002.008-.009.016-.009.024a4.886 4.886 0 0 1-.434.921l-.006.01a2.814 2.814 0 0 1-.16.249 2.88 2.88 0 0 1-.173.238c-.064.078-.127.156-.19.228-.065.072-.132.141-.198.21a4.102 4.102 0 0 1-.208.2l-.01.008a4.048 4.048 0 0 1-.234.196.355.355 0 0 0-.037.032.997.997 0 0 0-.353.77c0 .552.434 1 .97 1 2.989.005 5.714-1.766 7-4.55a3.033 3.033 0 0 0 .236-.57zm.644-2.862v.001a.26.26 0 0 0-.356-.066c-.102.078-.218.321-.123.437.094.117.362.063.465-.017.103-.08.109-.238.014-.355zm26.24 8.044a2.896 2.896 0 0 0 2.538-1.554c.613.22 1.198.518 1.739.888-1.228 2.402-4.092 3.351-6.448 2.138.013-.028.026-.057.036-.085l.006-.019.015-.049a2.104 2.104 0 0 0-.43-1.953.782.782 0 0 0-1.156-.037.791.791 0 0 0-.157.227 2.099 2.099 0 0 1-.151.255c-1.471-2.209-.991-5.222 1.089-6.828 2.08-1.607 5.018-1.235 6.66.842a4.122 4.122 0 0 0-1.024 1.392 5.211 5.211 0 0 0-.115.295c-.02.007-.041.017-.064.026-.791-1.416-2.537-1.917-3.924-1.127s-1.905 2.581-1.164 4.026a.218.218 0 0 0-.117.058c-.097.1-.19.377-.08.492.11.115.382.022.479-.077.006-.006.008-.015.013-.021a2.9 2.9 0 0 0 .229.257c-.105.06-.245.236-.19.36.055.124.297.132.402.082.06-.031.1-.092.108-.162a2.831 2.831 0 0 0 1.706.574zm-1.804 1.521a.095.095 0 0 0 .073-.025.1.1 0 0 0 .032-.073.114.114 0 0 0-.085-.127c-.052-.007-.156.029-.16.09-.006.063.087.128.14.135zm.197-.561v-.002a.166.166 0 0 0 .12-.175.164.164 0 0 0-.146-.152c-.077.006-.214.092-.207.183.007.09.156.152.233.146zm.013-.669h.001a.21.21 0 0 0 .117-.244.202.202 0 0 0-.218-.154c-.09.025-.244.161-.217.272.026.11.224.152.317.126zm-7.131-7.9V6h1.94V16h-1.94v-1a4.728 4.728 0 0 1-4.43.747c-1.507-.514-2.674-1.755-3.126-3.324a3.405 3.405 0 0 0-.143-2.187c.035-.237.087-.471.155-.7a.78.78 0 0 0 .37-.083c.196-.112.25-.386.127-.614a.525.525 0 0 0-.148-.168 4.9 4.9 0 0 1 2.865-2.453c.023.002.047.004.07.008h.004a2.644 2.644 0 0 1 .51.13l.012.005.074.028.071.032.07.032.08.041c.022.012.043.023.064.036a2.604 2.604 0 0 1 .935.913.397.397 0 0 0 .02.04c.055.088.123.167.202.234a1.005 1.005 0 0 0 1.441-.13l.004-.005a.56.56 0 0 0 .034-.045 2.661 2.661 0 0 0 .39-.78c.12.076.237.157.349.244v-.44a.47.47 0 0 0 .283.21.26.26 0 0 0 .272-.221.267.267 0 0 0-.186-.302c-.104-.018-.3.035-.37.141zm-6.87 3.531v.001c-.184.031-.502.265-.467.483.035.218.409.335.593.304.183-.03.305-.233.27-.45-.035-.218-.213-.37-.397-.338zm.15 2.797v.002a.251.251 0 0 0-.173-.306c-.123-.021-.374.055-.4.197-.026.141.182.303.304.327a.245.245 0 0 0 .269-.22zm.028-.816v.002c.155.002.282-.147.284-.33.002-.184-.122-.337-.277-.337-.156 0-.451.143-.451.327 0 .185.288.338.444.338zm5.725-3.858v.004c-.129.159.02.5.154.617.134.117.347.08.476-.08.129-.159.124-.381-.01-.497-.135-.115-.493-.203-.62-.044zm-1.942 5.95v.005c1.608-.002 2.91-1.347 2.909-3.004 0-1.214-.709-2.308-1.796-2.772a2.845 2.845 0 0 0-3.17.65 3.069 3.069 0 0 0-.63 3.27c.45 1.121 1.51 1.852 2.687 1.852zm3.22-6.433v.005c.057-.165-.005-.345-.146-.397-.142-.052-.45-.015-.508.15-.057.164.158.395.297.447.14.052.3-.04.356-.205zm-13.87 3.017a.013.013 0 0 1-.007-.006h-.008V0h1.94v10.77l-.02.004c-.034.007-.064.013-.097.018a2.942 2.942 0 0 1-.497.047c-.06.005-.121 0-.18 0h-.006a1.812 1.812 0 0 1-.187-.013h-.007a2.71 2.71 0 0 1-.38-.064c-.062-.015-.122-.033-.183-.05a2.33 2.33 0 0 1-.18-.059l-.008-.003a2.955 2.955 0 0 1-.18-.073zm-.015 2.055a5.092 5.092 0 0 0 3.88 1.586v1.78h-1.94a1.91 1.91 0 0 1-1.371-.585 2.032 2.032 0 0 1-.569-1.415v-1.366zm38 0a.66.66 0 0 0 .155.124.354.354 0 0 0 .04.018v3.221h-1.94v-1a4.725 4.725 0 0 1-3.973.877.86.86 0 0 0 .469-.34l.007-.013.02-.032a1.564 1.564 0 0 0 .07-1.463l-.008-.019-.014-.03c-.007-.011-.016-.02-.022-.031.12.023.241.038.363.045-.068.043-.133.117-.122.182.018.1.188.154.272.14a.168.168 0 0 0 .105-.077.177.177 0 0 0 .022-.13.198.198 0 0 0-.055-.108c1.132-.016 2.152-.709 2.615-1.775a.286.286 0 0 0 .087-.025h.004c.029-.015.062-.027.092-.039h.004c.03-.011.062-.02.093-.03a1.407 1.407 0 0 1 .193-.047c.035-.006.065-.014.098-.014a.819.819 0 0 1 .097-.008h.096a1.512 1.512 0 0 1 .25.021h.008l.05.01.05.01.049.012.055.017c.016.004.03.01.045.015a1.679 1.679 0 0 1 .725.49zm-4.945 3.012h-.003a.085.085 0 0 0-.033-.107c-.036-.016-.116-.012-.132.031-.016.044.039.11.074.125a.07.07 0 0 0 .058-.003.074.074 0 0 0 .036-.046zm.277-.412h-.003a.116.116 0 0 0-.076-.14c-.056-.01-.171.023-.183.089-.012.066.083.14.14.15a.112.112 0 0 0 .122-.1zm.013-.374h.003a.153.153 0 0 0 .128-.153.153.153 0 0 0-.128-.153c-.07 0-.205.066-.206.15-.001.085.132.156.203.156zm2.936-8.859h1.93v4.3h-.038a2.63 2.63 0 0 0-1.902.66c-.012-1.32-.862-2.478-2.092-2.848-1.23-.37-2.55.136-3.25 1.244a.348.348 0 0 0 .024-.174c-.019-.171-.151-.296-.296-.278-.144.017-.4.186-.38.36.02.173.306.278.45.26a.24.24 0 0 0 .161-.096c-.1.167-.184.345-.25.53a.292.292 0 0 0-.04-.015c-.167-.041-.517.043-.563.24-.045.198.232.435.398.476a.286.286 0 0 0 .041.004 3.02 3.02 0 0 0-.019.332c.002 1.16.65 2.214 1.667 2.709a.523.523 0 0 0-.224.15 1.478 1.478 0 0 1-.677.45l-.05.014-.043.01c-.014.004-.029.01-.043.01l-.045.01h-.007l-.077.01c-.048.006-.096.01-.144.01h-.082a.765.765 0 0 1-.085-.007.989.989 0 0 1-.174-.03c-.029-.006-.056-.014-.084-.022a1.232 1.232 0 0 1-.083-.027h-.003a1.462 1.462 0 0 1-.082-.034l-.014-.005a.28.28 0 0 0-.251.018.296.296 0 0 0-.127.143 5.066 5.066 0 0 1-1.26-4.04.973.973 0 0 0 .885.035c.284-.13.493-.391.565-.704v-.005c.004-.019.01-.038.01-.055a2.64 2.64 0 0 0-.353-1.865 4.37 4.37 0 0 1 .174-.2.12.12 0 0 0 .011.042c.05.102.253.101.34.056a.2.2 0 0 0 .066-.266.21.21 0 0 0-.14-.114 4.736 4.736 0 0 1 6.156-.288V6zm-5.682 2.503a.264.264 0 0 0 .137-.313.253.253 0 0 0-.281-.183c-.116.035-.301.213-.261.35.04.138.29.182.405.146zM61.844 11.266h3.558c.091 1.105 1.159 1.81 2.704 1.81 1.392 0 2.348-.695 2.348-1.694 0-.842-.64-1.294-2.318-1.641l-1.931-.4c-2.684-.526-4.066-2.04-4.066-4.428C62.139 1.946 64.436 0 67.973 0c3.436 0 5.815 1.925 5.876 4.734h-3.446c-.081-1.073-1.067-1.82-2.379-1.82-1.311 0-2.175.642-2.175 1.651 0 .831.65 1.315 2.196 1.63l1.89.38c2.897.578 4.198 1.935 4.198 4.344 0 3.166-2.337 5.081-6.18 5.081-3.71 0-6.048-1.81-6.109-4.734zM83.354 16c-4.392 0-7.096-3.05-7.096-8.005C76.258 3.04 78.952 0 83.353 0c3.69 0 6.485 2.546 6.597 5.986h-3.588c-.193-1.652-1.403-2.767-3.009-2.767-2.043 0-3.293 1.81-3.293 4.765 0 2.967 1.25 4.797 3.303 4.797 1.606 0 2.806-1.073 3.02-2.703h3.577C89.838 13.549 87.114 16 83.353 16zm25.402-.41h-3.446V6.007h-.183l-3.263 8.447h-2.308l-3.273-8.447H96.1v9.583h-3.446V.41h4.402l3.557 9.31h.193l3.548-9.31h4.402v15.18z"/>
    </g>
</svg>
