<svg xmlns="http://www.w3.org/2000/svg" width="95" height="14" viewBox="0 0 95 14">
    <g fill="#05A5AD" fill-rule="nonzero">
        <path d="M6.758 0c3.734 0 6.76 3.134 6.76 7 0 3.865-3.026 6.998-6.76 6.998H.845c-.466 0-.845-.391-.845-.875V.875C0 .392.379 0 .845 0h5.913zm3.959 3.923c-.105.13-.183.47-.041.595s.454-.02.559-.146c.105-.127.075-.334-.07-.458-.143-.124-.344-.119-.448.01zm-1.148-1.05c-.101.184-.13.623.073.744.203.12.557-.125.658-.307.102-.181.02-.429-.182-.547-.201-.119-.447-.072-.55.11zm-1.575-.629v.001c-.083.238-.03.764.235.862.265.098.634-.266.718-.504.085-.238-.061-.509-.325-.609-.263-.1-.544.012-.628.25zm-1.332-.44v.002c-.33 0-.598.241-.598.54 0 .297.267.857.598.857.331 0 .6-.559.6-.858 0-.299-.268-.54-.6-.54zm4.55 5.91c.075-.253.113-.517.114-.782 0-.383-.08-.762-.238-1.11l-.018-.036c-.015-.033-.032-.064-.049-.098a4.255 4.255 0 0 0-.142-.243c-.728-1.17-1.95-1.911-3.292-1.995-.018-.003-.036-.003-.055-.003a.795.795 0 0 0-.091-.004h-.01c-.929.006-1.68.787-1.68 1.75a1.764 1.764 0 0 0 .096.585c.224.706.271 1.46.137 2.192-.008.04-.014.08-.024.12-.01.051-.023.107-.034.149-.01.042-.023.084-.034.126a3.387 3.387 0 0 1-.08.254c0 .007-.006.014-.006.021a4.283 4.283 0 0 1-.379.806l-.005.008a2.464 2.464 0 0 1-.14.218 2.52 2.52 0 0 1-.15.209c-.056.068-.11.136-.166.2-.056.062-.115.123-.173.183-.057.06-.118.117-.181.174l-.008.008a3.531 3.531 0 0 1-.205.17.768.768 0 0 0-.17.177.875.875 0 0 0-.17.526c0 .483.379.875.845.875 2.606.004 4.981-1.545 6.102-3.981a2.66 2.66 0 0 0 .206-.499zm.56-2.504a.226.226 0 0 0-.309-.057c-.09.068-.19.28-.108.383.083.101.316.055.406-.016.09-.07.095-.208.012-.31zm22.871 7.039a2.523 2.523 0 0 0 2.212-1.36 6.672 6.672 0 0 1 1.515.777c-1.07 2.101-3.566 2.932-5.619 1.87l.031-.074.005-.016.013-.043c.01-.039.02-.076.028-.115a1.846 1.846 0 0 0-.402-1.594.68.68 0 0 0-1.008-.032.692.692 0 0 0-.137.198 1.838 1.838 0 0 1-.131.223c-1.283-1.933-.864-4.57.948-5.975 1.813-1.406 4.374-1.08 5.805.737-.378.336-.682.751-.893 1.218a4.57 4.57 0 0 0-.1.258l-.055.023c-.69-1.24-2.211-1.678-3.42-.986-1.21.692-1.66 2.258-1.014 3.523a.19.19 0 0 0-.103.05c-.084.088-.165.33-.07.43.097.102.333.02.418-.066.005-.006.007-.013.012-.019.062.08.128.154.199.225-.092.052-.214.206-.166.315.048.109.26.115.35.072a.18.18 0 0 0 .095-.142c.431.327.952.503 1.487.503zm-1.573 1.33a.082.082 0 0 0 .064-.022.088.088 0 0 0 .028-.063.1.1 0 0 0-.074-.111c-.046-.007-.136.024-.14.079-.005.054.077.11.122.117zm.172-.491v-.002a.146.146 0 0 0 .104-.153.144.144 0 0 0-.126-.133c-.067.006-.187.08-.181.16.006.08.136.134.203.128zm.011-.585h.001a.184.184 0 0 0 .102-.214.176.176 0 0 0-.19-.134c-.078.022-.212.14-.189.237.023.097.195.134.276.111zm-6.215-6.912v-.342h1.69V14h-1.69v-.875a4.108 4.108 0 0 1-3.861.654c-1.313-.45-2.33-1.536-2.724-2.909a2.99 2.99 0 0 0-.125-1.914c.03-.207.076-.412.135-.612a.677.677 0 0 0 .323-.073c.17-.097.218-.338.11-.537a.459.459 0 0 0-.129-.147 4.275 4.275 0 0 1 2.498-2.146l.06.006h.004a2.296 2.296 0 0 1 .444.114l.011.005c.022.007.043.016.064.025.021.008.042.018.062.027l.061.029.07.036.056.03a2.276 2.276 0 0 1 .815.8.348.348 0 0 0 .017.035.884.884 0 0 0 .176.205.873.873 0 0 0 1.256-.115l.004-.003a.49.49 0 0 0 .047-.065c.14-.2.25-.422.322-.659.104.068.206.139.304.215v-.385a.41.41 0 0 0 .247.184.227.227 0 0 0 .237-.194.234.234 0 0 0-.162-.264c-.09-.016-.262.03-.322.124zM21.05 8.68c-.16.027-.436.232-.406.423.03.19.356.292.516.266.16-.027.266-.204.236-.395-.03-.19-.186-.322-.346-.295zm.131 2.447a.22.22 0 0 0-.15-.266c-.107-.02-.326.047-.349.171-.022.125.159.266.265.286a.213.213 0 0 0 .234-.191zm.025-.714c.135.003.246-.127.248-.288.001-.16-.107-.294-.242-.294-.136 0-.393.125-.393.286 0 .161.251.296.387.296zm4.99-3.376v.003c-.113.139.017.438.134.54.117.102.303.07.415-.07.112-.139.108-.333-.01-.435-.117-.1-.429-.178-.54-.038zm-1.693 5.207v.004c1.401-.002 2.536-1.179 2.535-2.63 0-1.061-.618-2.018-1.565-2.425a2.472 2.472 0 0 0-2.763.57 2.693 2.693 0 0 0-.55 2.86c.393.981 1.318 1.62 2.343 1.62zm2.806-5.63v.004c.05-.144-.004-.302-.127-.347-.123-.045-.392-.013-.442.131-.05.144.137.346.258.391.122.046.261-.035.311-.179zm-12.088 2.64a.012.012 0 0 1-.006-.006h-.007V0H16.9v9.423l-.018.004c-.03.006-.056.012-.085.016a2.555 2.555 0 0 1-.433.041c-.052.005-.105 0-.156 0H16.2a1.573 1.573 0 0 1-.163-.011h-.005a2.354 2.354 0 0 1-.332-.057c-.054-.013-.107-.028-.16-.043a2.024 2.024 0 0 1-.157-.051l-.006-.003a2.57 2.57 0 0 1-.157-.064zm-.013 1.798a4.43 4.43 0 0 0 3.38 1.388v1.557H16.9c-.448 0-.878-.184-1.195-.512a1.782 1.782 0 0 1-.496-1.237v-1.196zm33.12 0c.039.043.084.08.134.109a.308.308 0 0 0 .035.015v2.819h-1.69v-.875a4.106 4.106 0 0 1-3.464.767.75.75 0 0 0 .41-.298l.006-.011.018-.028a1.373 1.373 0 0 0 .06-1.28l-.007-.017c-.003-.008-.008-.017-.013-.025l-.019-.028c.105.02.21.033.317.04-.06.037-.116.101-.106.159.016.087.163.134.237.122a.146.146 0 0 0 .091-.067.156.156 0 0 0 .02-.114.174.174 0 0 0-.049-.094c.987-.015 1.876-.62 2.28-1.553a.248.248 0 0 0 .075-.023h.004c.025-.012.054-.023.08-.034h.004c.026-.01.054-.018.08-.026A1.223 1.223 0 0 1 47 10.57c.03-.005.057-.012.085-.012a.71.71 0 0 1 .085-.007h.083a1.313 1.313 0 0 1 .218.018h.007l.044.008.043.01.043.01.048.015.04.013a1.464 1.464 0 0 1 .632.428zm-4.31 2.636h-.003a.075.075 0 0 0-.03-.094c-.03-.014-.1-.011-.114.027-.014.039.034.096.065.11a.061.061 0 0 0 .05-.004.065.065 0 0 0 .031-.04zm.24-.361h-.002a.101.101 0 0 0-.066-.123c-.05-.009-.15.02-.16.078-.01.058.073.123.122.132.053.007.1-.033.107-.087zM44.27 13h.003a.134.134 0 0 0 .111-.133.134.134 0 0 0-.111-.134c-.062 0-.179.058-.18.132-.001.074.115.135.177.135zm2.56-7.75h1.68v3.76h-.032a2.286 2.286 0 0 0-1.658.58c-.01-1.157-.751-2.17-1.824-2.493-1.072-.323-2.222.119-2.83 1.089.019-.048.026-.101.02-.153-.017-.15-.133-.259-.258-.243-.126.015-.35.163-.332.315.017.151.267.243.392.228a.209.209 0 0 0 .14-.084c-.087.146-.16.301-.217.463a.254.254 0 0 0-.035-.013c-.146-.036-.45.038-.49.21-.04.173.201.38.346.417a.248.248 0 0 0 .036.004c-.011.096-.017.193-.017.29.002 1.014.567 1.937 1.453 2.37a.455.455 0 0 0-.195.131 1.289 1.289 0 0 1-.59.393c-.015.005-.029.01-.043.013l-.038.01c-.012.003-.025.009-.038.009l-.039.007h-.006l-.067.01a1.154 1.154 0 0 1-.126.008h-.07a.858.858 0 0 1-.226-.031l-.074-.02a1.07 1.07 0 0 1-.072-.024h-.003a1.271 1.271 0 0 1-.072-.03l-.012-.005a.243.243 0 0 0-.219.016.259.259 0 0 0-.11.126 4.443 4.443 0 0 1-1.099-3.536.845.845 0 0 0 .772.031.896.896 0 0 0 .492-.616v-.004c.004-.016.01-.033.01-.048a2.317 2.317 0 0 0-.308-1.632c.049-.061.1-.119.151-.176.001.013.004.026.01.037.043.09.22.089.295.05a.175.175 0 0 0 .058-.233.183.183 0 0 0-.121-.1 4.115 4.115 0 0 1 5.365-.252V5.25zm-4.953 2.19a.232.232 0 0 0 .12-.274.22.22 0 0 0-.246-.161c-.1.03-.262.187-.227.307.034.12.252.159.353.127zM53.9 9.858h3.102c.08.966 1.01 1.583 2.356 1.583 1.214 0 2.047-.607 2.047-1.482 0-.736-.559-1.132-2.02-1.436l-1.684-.35c-2.338-.46-3.543-1.785-3.543-3.875C54.158 1.703 56.16 0 59.243 0c2.994 0 5.068 1.684 5.12 4.142H61.36c-.07-.939-.93-1.592-2.073-1.592-1.143 0-1.896.561-1.896 1.445 0 .727.567 1.15 1.914 1.426l1.648.332c2.525.506 3.659 1.693 3.659 3.801 0 2.77-2.038 4.446-5.387 4.446-3.233 0-5.271-1.583-5.324-4.142zM72.648 14c-3.827 0-6.184-2.67-6.184-7.005S68.811 0 72.647 0c3.216 0 5.653 2.227 5.75 5.237H75.27c-.169-1.445-1.223-2.42-2.623-2.42-1.78 0-2.87 1.583-2.87 4.17 0 2.595 1.09 4.196 2.88 4.196 1.399 0 2.444-.938 2.63-2.365h3.119C78.3 11.855 75.926 14 72.647 14zm22.14-.359h-3.003V5.256h-.16l-2.844 7.39h-2.01l-2.854-7.39h-.159v8.385h-3.003V.359h3.836l3.1 8.146h.169L90.95.359h3.836v13.282z"/>
    </g>
</svg>
