<svg xmlns="http://www.w3.org/2000/svg" xmlns:xlink="http://www.w3.org/1999/xlink" width="14" height="14" viewBox="0 0 20 20">
    <defs>
        <path id="a" d="M2.28 10.06c.472.732 1.03 1.464 1.668 2.145 1.78 1.899 3.81 3.018 6.052 3.018 2.243 0 4.271-1.12 6.052-3.018a15.218 15.218 0 0 0 2-2.684 15.218 15.218 0 0 0-2-2.684c-1.78-1.9-3.81-3.019-6.052-3.019-2.243 0-4.271 1.12-6.052 3.019a15.218 15.218 0 0 0-2 2.684c.097.167.208.348.332.54zM.096 9.115c.117-.235.337-.625.656-1.12a17.018 17.018 0 0 1 1.87-2.4C4.715 3.36 7.18 2 10 2c2.82 0 5.285 1.36 7.378 3.593a17.018 17.018 0 0 1 1.87 2.401c.32.495.539.885.656 1.12a.91.91 0 0 1 0 .813c-.117.235-.337.625-.656 1.12a17.018 17.018 0 0 1-1.87 2.401c-2.093 2.233-4.559 3.593-7.378 3.593-2.82 0-5.285-1.36-7.378-3.593a17.018 17.018 0 0 1-1.87-2.401c-.32-.495-.539-.885-.656-1.12a.91.91 0 0 1 0-.813zM10 12.91a3.388 3.388 0 1 1 0-6.777 3.388 3.388 0 0 1 0 6.777zm0-1.818a1.57 1.57 0 1 0 0-3.14 1.57 1.57 0 0 0 0 3.14z"/>
    </defs>
    <g fill="none" fill-rule="evenodd">
        <mask id="b" fill="#fff">
            <use xlink:href="#a"/>
        </mask>
        <use fill="#000" fill-rule="nonzero" xlink:href="#a"/>
        <g fill="#A4A4A4" mask="url(#b)">
            <path d="M0 0h20v20H0z"/>
        </g>
    </g>
</svg>
