<svg xmlns="http://www.w3.org/2000/svg" width="30" height="30" viewBox="0 0 20 20">
    <g fill="none" fill-rule="nonzero">
        <path fill="#1B1C1C" fill-opacity=".3" d="M17.689 3.311a4.784 4.784 0 0 0-6.767 0L10 4.233l-.922-.922a4.785 4.785 0 0 0-6.767 6.767l.922.922L10 17.767 16.767 11l.922-.922a4.784 4.784 0 0 0 0-6.767z"/>
        <path fill="#FFF" d="M20 6.695c0 1.51-.6 2.958-1.668 4.026l-7.69 7.69a.91.91 0 0 1-1.285 0l-7.69-7.69a5.694 5.694 0 0 1 8.054-8.053l.279.28.279-.28A5.693 5.693 0 0 1 20 6.695zm-10 9.787l6.124-6.125.922-.922a3.875 3.875 0 1 0-5.481-5.481l-.922.922a.91.91 0 0 1-1.286 0l-.922-.922a3.876 3.876 0 0 0-5.482 5.481L10 16.482z"/>
    </g>
</svg>
