<svg xmlns="http://www.w3.org/2000/svg" xmlns:xlink="http://www.w3.org/1999/xlink" width="14" height="14" viewBox="0 0 20 20">
    <defs>
        <path id="a" d="M4.876 13.966a.818.818 0 0 1 .578-.24h10.908a1 1 0 0 0 1-1v-9.09a1 1 0 0 0-1-1H3.636a1 1 0 0 0-1 1v12.569l2.24-2.24zm-2.48 4.793A.818.818 0 0 1 1 18.18V3.636A2.636 2.636 0 0 1 3.636 1h12.726a2.636 2.636 0 0 1 2.636 2.636v9.09a2.636 2.636 0 0 1-2.636 2.636H5.793L2.397 18.76z"/>
    </defs>
    <g fill="none" fill-rule="evenodd">
        <mask id="b" fill="#fff">
            <use xlink:href="#a"/>
        </mask>
        <use fill="#000" fill-rule="nonzero" xlink:href="#a"/>
        <g fill="#A4A4A4" mask="url(#b)">
            <path d="M0 0h20v20H0z"/>
        </g>
    </g>
</svg>
