<svg xmlns="http://www.w3.org/2000/svg" xmlns:xlink="http://www.w3.org/1999/xlink" width="50" height="50" viewBox="0 0 40 40">
    <defs>
        <path id="a" d="M25.021 19.776c-1.412 0-2.196-1.041-2.281-1.16l-.134-.185 1.207-.864.133.184c.016.023.4.54 1.047.54h.012c.647-.007 1.016-.517 1.03-.538l.133-.188 1.21.866-.133.185c-.137.191-.888 1.146-2.224 1.16zm6.582 11.996h-1.485v-.627h-.5v3.487h2.486v-3.487h-.501v.627zm1.083-2.112c.497 0 .903.406.903.905v4.648a.906.906 0 0 1-.903.905h-.59v1.881h-1.485v-1.881h-1.575a.906.906 0 0 1-.905-.905v-4.648c0-.499.406-.905.905-.905h1.082v-1.288h1.485v1.288h1.083zM12.26 4.319L4.265 12.55l7.995-.016V4.319zm15.614 20.523c-.2.144-.452.289-.763.415l.763.35v-.765zm3.33-7.651c-.442 1.738-1.604 3.221-3.15 4.02l.127 1.03c.094.748.68 1.35 1.424 1.464l1.996.306c.42.066.84.168 1.25.306l.192-.183a1.819 1.819 0 0 0-.048-2.3l-.495-.58a3.309 3.309 0 0 1-.788-2.142v-1.935c-.074.009-.148.014-.223.014h-.285zm-8.097 5.234c-.05.396-.172.772-.361 1.121.341.26 1.017.588 2.245.588 1.194 0 1.803-.306 2.099-.55a3.18 3.18 0 0 1-.382-1.16l-.087-.695c-.4.086-.806.13-1.214.13h-1.05c-.39 0-.78-.041-1.164-.121l-.086.687zm-4.836-3.313c0 .783-.28 1.544-.787 2.142l-.494.58a1.824 1.824 0 0 0-.013 2.342l.09.107a7.409 7.409 0 0 1 1.148-.272l1.995-.306a1.701 1.701 0 0 0 1.424-1.464l.124-1.006a6.091 6.091 0 0 1-3.185-4.044h-.15c-.051 0-.1-.002-.152-.007v1.928zm13.675-6.132l.023-.35c-.009-4.231-3.075-7.688-6.836-7.688h-.46c-3.766 0-6.833 3.462-6.836 7.716l.007.353a2.02 2.02 0 0 1 .578-.084l1.15.004c.758-.02 3.33-.238 4.312-2.261.713-1.467 1.563-2.334 2.528-2.574a1.63 1.63 0 0 1 1.272.2c.381.237.654.622.748 1.056.22 1.008.882 3.375 2.305 3.578l.752-.003c.155 0 .308.018.457.053zM19.94 14.97c-.16 1.064.027 2.144.525 3.041.81 1.457 2.302 2.362 3.89 2.362h1.05c2.491 0 4.517-2.152 4.517-4.797v-1.33c-1.388-.522-2.402-2.1-2.942-4.58a.18.18 0 0 0-.08-.107.16.16 0 0 0-.129-.023c-.495.124-1.061.773-1.551 1.783-1.18 2.432-3.896 2.96-5.191 3.07l-.089.581zm12.029.255v-.334a.479.479 0 0 0-.48-.478h-.082v1.292h.082a.48.48 0 0 0 .48-.48zm-14.08-.281v.23c0 .285.228.52.512.531 0-.323.024-.642.071-.955l.05-.337h-.103a.53.53 0 0 0-.53.531zM23.03 25.33a4.482 4.482 0 0 1-.604-.25v.527l.604-.277zm14.392 3.662c.088.275.133.563.133.851V38h-1.486v-8.157c0-.136-.02-.27-.062-.4a5.741 5.741 0 0 0-4.632-3.963l-1.995-.306-.021-.004v.96c0 .394-.198.757-.53.97-.327.208-.752.24-1.104.075l-2.575-1.186-2.576 1.187a1.156 1.156 0 0 1-1.103-.077 1.146 1.146 0 0 1-.53-.968v-1.079a3.29 3.29 0 0 1-.506.122l-1.995.306a5.742 5.742 0 0 0-4.633 3.962c-.04.13-.062.265-.062.401V38H12.26V14.021l-9.342.017a.916.916 0 1 1-.66-1.555l9.914-10.205a.917.917 0 0 1 1.573.639v23.602a7.273 7.273 0 0 1 1.921-1.615 3.317 3.317 0 0 1-.4-3.013c.134-.373.333-.717.592-1.02l.494-.581c.28-.328.434-.746.434-1.178v-2.761a1.992 1.992 0 0 1-.38-1.165l-.055-2.518c0-5.081 3.733-9.211 8.323-9.211h.459c4.588 0 8.32 4.13 8.32 9.207l-.103 1.602c.07.201.104.412.104.625v.334c0 .339-.089.673-.257.968v2.92c0 .431.155.85.434 1.177l.494.58a3.295 3.295 0 0 1 .141 4.103 7.216 7.216 0 0 1 3.156 4.018z"/>
        <linearGradient id="c" x1="100%" x2="0%" y1="50%" y2="50%">
            <stop offset="0%" stop-color="#F88B4C"/>
            <stop offset="100%" stop-color="#F36B51"/>
        </linearGradient>
    </defs>
    <g fill="none" fill-rule="evenodd">
        <mask id="b" fill="#fff">
            <use xlink:href="#a"/>
        </mask>
        <use fill="#202020" xlink:href="#a"/>
        <g fill="url(#c)" mask="url(#b)">
            <path d="M0 0h40v40H0z"/>
        </g>
    </g>
</svg>
