<svg xmlns="http://www.w3.org/2000/svg" xmlns:xlink="http://www.w3.org/1999/xlink" width="20" height="20" viewBox="0 0 40 40">
    <defs>
        <path id="a" d="M40 16.267a9.03 9.03 0 0 1-9.03 9.03H8.526A7.785 7.785 0 1 1 9.81 9.807 11.522 11.522 0 0 1 31.246 7.24 9.03 9.03 0 0 1 40 16.267zm-9.03-7.162h-.312a.934.934 0 0 1-.851-.55 9.653 9.653 0 0 0-18.342 2.498.934.934 0 0 1-1.171.759 5.916 5.916 0 0 0-6.984 8.1 5.909 5.909 0 0 0 5.24 3.517h22.42a7.162 7.162 0 0 0 0-14.324zM1.45 34.67a.934.934 0 0 1 1.46 1.167l-1.246 1.557a.934.934 0 0 1-1.46-1.167L1.45 34.67zm4.981-6.226a.934.934 0 1 1 1.462 1.163l-2.18 2.74a.934.934 0 1 1-1.462-1.163l2.18-2.74zm.5 8.717a.934.934 0 0 1 1.459 1.167l-.997 1.246a.934.934 0 0 1-1.459-1.168l.997-1.245zm6.975-8.72a.934.934 0 0 1 1.459 1.168l-3.986 4.982a.934.934 0 1 1-1.459-1.167l3.986-4.982zm3.551 4.919a.934.934 0 1 1 1.456 1.171l-2.304 2.865a.934.934 0 0 1-1.456-1.171l2.304-2.865zm3.923-4.918a.934.934 0 0 1 1.458 1.167l-.996 1.246a.934.934 0 0 1-1.459-1.168l.997-1.245zm2.05 6.731a.934.934 0 0 1 1.468 1.157l-2.554 3.238a.934.934 0 1 1-1.467-1.156l2.554-3.239zm5.422-6.73a.934.934 0 1 1 1.461 1.164l-2.429 3.052a.934.934 0 1 1-1.461-1.164l2.429-3.051z"/>
        <linearGradient id="c" x1="100%" x2="0%" y1="50%" y2="50%">
            <stop offset="0%" stop-color="#F88B4C"/>
            <stop offset="100%" stop-color="#F36B51"/>
        </linearGradient>
    </defs>
    <g fill="none" fill-rule="evenodd">
        <mask id="b" fill="#fff">
            <use xlink:href="#a"/>
        </mask>
        <use fill="#202020" fill-rule="nonzero" xlink:href="#a"/>
        <g fill="url(#c)" mask="url(#b)">
            <path d="M0 0h40v40H0z"/>
        </g>
    </g>
</svg>
