<svg xmlns="http://www.w3.org/2000/svg" xmlns:xlink="http://www.w3.org/1999/xlink" width="50" height="50" viewBox="0 0 40 40">
    <defs>
        <path id="a" d="M2.924 20.398h15.393v-4.946a.948.948 0 0 0-.947-.946H3.87a.947.947 0 0 0-.946.946v4.946zm0 1.924v12.403c0 .521.425.945.946.945h13.5a.948.948 0 0 0 .947-.945V22.322H2.924zM1 21.387a.984.984 0 0 1 0-.055v-5.88a2.872 2.872 0 0 1 2.87-2.87h13.5a2.873 2.873 0 0 1 2.87 2.87v19.273a2.873 2.873 0 0 1-2.87 2.87H3.87A2.872 2.872 0 0 1 1 34.724V21.387zm33.244 7.72V27.32c0-.05-.04-.092-.09-.092h-3.987v2.018h-1.924V27.23h-.27c-.051 0-.091.042-.091.092v4.674c0 .05.04.092.09.092h2.906v-2.98h3.366zm0 1.924h-1.442v1.056h1.352c.05 0 .09-.042.09-.092v-.964zm-8.772-9.847a.421.421 0 0 0-.421.421V35.25c0 .232.188.422.421.422h11.182c.232 0 .422-.19.422-.422V24.897a.42.42 0 0 0-.124-.298l-3.291-3.292a.429.429 0 0 0-.3-.123h-7.889zm11.182 16.41H25.472a2.348 2.348 0 0 1-2.345-2.345V21.605a2.348 2.348 0 0 1 2.345-2.345h7.89c.626 0 1.215.243 1.658.686l3.292 3.293A2.33 2.33 0 0 1 39 24.897V35.25a2.349 2.349 0 0 1-2.346 2.346zm-2.5-3.583h-6.182a2.018 2.018 0 0 1-2.014-2.016v-4.674c0-1.112.904-2.016 2.014-2.016h6.182c1.11 0 2.014.904 2.014 2.016v4.674a2.018 2.018 0 0 1-2.014 2.016zm-11.99-20.467a.961.961 0 0 1-.962-.962.962.962 0 0 0-.962-.962.961.961 0 1 1 0-1.924 2.89 2.89 0 0 1 2.886 2.886c0 .532-.43.962-.962.962zm3.848 0a.961.961 0 0 1-.962-.962 4.816 4.816 0 0 0-4.81-4.81.961.961 0 1 1 0-1.924 6.743 6.743 0 0 1 6.734 6.734c0 .532-.43.962-.962.962zm3.848 0a.961.961 0 0 1-.962-.962c0-4.774-3.883-8.658-8.658-8.658a.961.961 0 1 1 0-1.924c5.835 0 10.582 4.748 10.582 10.582 0 .532-.43.962-.962.962z"/>
        <linearGradient id="c" x1="100%" x2="0%" y1="50%" y2="50%">
            <stop offset="0%" stop-color="#F88B4C"/>
            <stop offset="100%" stop-color="#F36B51"/>
        </linearGradient>
    </defs>
    <g fill="none" fill-rule="evenodd">
        <mask id="b" fill="#fff">
            <use xlink:href="#a"/>
        </mask>
        <use fill="#000" xlink:href="#a"/>
        <g fill="url(#c)" mask="url(#b)">
            <path d="M0 0h40v40H0z"/>
        </g>
    </g>
</svg>
