<svg xmlns="http://www.w3.org/2000/svg" width="80" height="25" viewBox="0 0 80 25" class="logo">
    <defs>
        <linearGradient id="a" x1="-.801%" x2="359.152%" y1="48.439%" y2="67.469%">
            <stop offset="0%" stop-color="#05A5AD"/>
            <stop offset="100%" stop-color="#0AC4BB"/>
        </linearGradient>
        <linearGradient id="b" x1="-334.107%" x2="207.047%" y1="28.346%" y2="58.748%">
            <stop offset="0%" stop-color="#05A5AD"/>
            <stop offset="100%" stop-color="#0AC4BB"/>
        </linearGradient>
        <linearGradient id="c" x1="-240.598%" x2="331.824%" y1="33.261%" y2="63.705%">
            <stop offset="0%" stop-color="#05A5AD"/>
            <stop offset="100%" stop-color="#0AC4BB"/>
        </linearGradient>
        <linearGradient id="d" x1="17.744%" x2="115.784%" y1="40.476%" y2="68.558%">
            <stop offset="0%" stop-color="#05A5AD"/>
            <stop offset="100%" stop-color="#0AC4BB"/>
        </linearGradient>
        <linearGradient id="e" x1="-460.412%" x2="979.225%" y1="28.434%" y2="92.471%">
            <stop offset="0%" stop-color="#05A5AD"/>
            <stop offset="100%" stop-color="#0AC4BB"/>
        </linearGradient>
        <linearGradient id="f" x1="-846.118%" x2="98.306%" y1="19.55%" y2="51.782%">
            <stop offset="0%" stop-color="#05A5AD"/>
            <stop offset="100%" stop-color="#0AC4BB"/>
        </linearGradient>
        <linearGradient id="g" x1="-475.854%" x2="100.792%" y1="26.312%" y2="51.961%">
            <stop offset="0%" stop-color="#05A5AD"/>
            <stop offset="100%" stop-color="#0AC4BB"/>
        </linearGradient>
    </defs>
    <g fill="none" fill-rule="evenodd">
        <path fill="url(#a)" fill-rule="nonzero" d="M11.148.015H1.41C.64.015.018.638.017 1.407v19.484c0 .769.624 1.392 1.393 1.392h9.738c6.149 0 11.134-4.985 11.134-11.134S17.297.015 11.148.015zm6.52 6.241c.171-.204.503-.212.74-.014.236.197.286.526.113.728-.173.202-.687.431-.921.233-.234-.199-.106-.741.067-.947zm-1.891-1.67c.167-.29.573-.364.905-.176.331.189.467.582.3.871-.167.29-.75.68-1.085.487-.334-.192-.287-.89-.12-1.182zm-2.594-1.001c.14-.379.6-.557 1.035-.398.434.16.674.59.535.969-.14.378-.746.957-1.183.801-.437-.155-.523-.992-.387-1.37v-.002zm-2.193-.699c.546 0 .988.384.988.86s-.443 1.365-.988 1.365c-.545 0-.986-.89-.986-1.365 0-.474.44-.858.986-.858v-.002zm7.493 9.4a4.152 4.152 0 0 1-.34.793 11.11 11.11 0 0 1-10.048 6.334 1.392 1.392 0 0 1-.819-2.52c.112-.084.22-.172.324-.261.005-.006.01-.009.013-.012.104-.091.204-.182.299-.278.094-.095.192-.192.284-.292.092-.1.182-.21.273-.318a4.016 4.016 0 0 0 .256-.342c.08-.108.154-.22.222-.337 0 0 .006-.009.009-.011a6.709 6.709 0 0 0 .623-1.282c0-.013.01-.023.012-.034a6.55 6.55 0 0 0 .13-.404c.02-.068.04-.133.056-.2.018-.068.039-.156.056-.237.016-.064.027-.128.04-.192a6.975 6.975 0 0 0-.262-3.598 2.784 2.784 0 0 1 2.647-3.602h.014c.05-.001.1 0 .15.005.031 0 .061 0 .091.006a6.946 6.946 0 0 1 5.656 3.559c.028.054.055.104.08.157.012.019.02.039.03.058.26.552.393 1.155.391 1.765 0 .421-.064.84-.187 1.244zm.924-3.983c.136.162.128.381-.02.493-.147.112-.532.187-.668.025-.135-.162.03-.5.178-.609a.38.38 0 0 1 .51.092z" transform="translate(0 1)"/>
        <path fill="url(#b)" fill-rule="nonzero" d="M57.074 19.5c-.88 0-1.739-.28-2.45-.8a.288.288 0 0 1-.155.226c-.15.068-.498.058-.577-.115-.079-.173.122-.418.273-.5a4.08 4.08 0 0 1-.328-.359c-.008.01-.011.021-.02.03-.139.138-.528.267-.687.107-.158-.16-.024-.546.115-.686a.317.317 0 0 1 .168-.08 4.173 4.173 0 0 1 7.304-4.035l.091-.037c.052-.138.104-.273.165-.41a5.751 5.751 0 0 1 1.47-1.937 6.954 6.954 0 0 0-11.123 8.331 2.903 2.903 0 0 0 .239-.396 1.148 1.148 0 0 1 1.822-.268c.014.015.03.03.042.046a2.863 2.863 0 0 1 .616 2.719l-.022.067-.008.027c-.015.039-.033.078-.051.117a6.952 6.952 0 0 0 9.255-2.975 11.137 11.137 0 0 0-2.497-1.236 4.175 4.175 0 0 1-3.642 2.163zm-2.59 2.116c-.076-.01-.21-.1-.202-.187.007-.087.155-.137.23-.126.08.019.133.096.122.177a.138.138 0 0 1-.15.136zm.283-.781c-.11.009-.325-.077-.335-.203-.01-.127.187-.246.297-.255a.232.232 0 0 1 .038.455v.003zm.018-.93c-.134.035-.417-.023-.455-.177-.038-.154.182-.343.311-.378a.29.29 0 0 1 .146.554h-.002z" transform="translate(0 1)"/>
        <path fill="url(#c)" fill-rule="nonzero" d="M44.549 8.908c.099-.147.381-.222.53-.196a.371.371 0 0 1-.124.728.674.674 0 0 1-.406-.292v.612a7.235 7.235 0 0 0-.5-.341 3.66 3.66 0 0 1-.61 1.15l-.005.006a1.473 1.473 0 0 1-2.358-.144.546.546 0 0 1-.03-.056 3.656 3.656 0 0 0-1.342-1.271 1.754 1.754 0 0 0-.09-.05l-.116-.057-.1-.045-.103-.044a2.09 2.09 0 0 0-.106-.039l-.017-.007a3.543 3.543 0 0 0-.53-.147 3.904 3.904 0 0 0-.202-.034h-.007c-.032-.006-.066-.008-.1-.011a6.978 6.978 0 0 0-4.112 3.414c.087.062.16.142.213.235.177.316.098.699-.182.853-.166.08-.348.12-.532.116a6.769 6.769 0 0 0-.223.975c.413.962.485 2.035.206 3.044a6.959 6.959 0 0 0 10.846 3.587v1.391h2.784V8.365h-2.784v.543zm-9.862 4.915c.264-.044.518.167.569.47.05.303-.124.584-.388.627-.264.042-.8-.12-.85-.424-.05-.303.405-.628.669-.671v-.002zm.215 3.893a.349.349 0 0 1-.386.305c-.174-.032-.473-.257-.435-.455.037-.197.397-.303.573-.273.186.05.297.24.248.425v-.002zm.04-1.135c-.223 0-.637-.214-.637-.47 0-.258.424-.456.647-.456.223 0 .402.212.4.468-.004.256-.187.462-.41.46v-.002zm8.219-5.37c.182-.222.696-.1.89.06.192.162.2.471.015.694-.185.222-.491.273-.684.11-.193-.163-.406-.638-.221-.86v-.004zm-2.787 8.282a4.176 4.176 0 1 1 4.175-4.176 4.18 4.18 0 0 1-4.175 4.182v-.006zm4.62-8.955c-.081.23-.31.357-.51.285-.201-.072-.509-.393-.427-.622.082-.23.525-.28.728-.209.203.072.293.323.21.553v-.007z" transform="translate(0 1)"/>
        <path fill="url(#d)" d="M25.087 14.737c.085.037.172.07.257.102l.011.004c.086.031.173.058.26.082a3.807 3.807 0 0 0 .535.122c.09.015.182.028.273.037h.009c.089.01.179.017.268.019h.01c.084 0 .17.006.257 0a4.172 4.172 0 0 0 .714-.066c.047-.007.09-.016.139-.025l.03-.007V.015h-2.785V14.73h.01a.02.02 0 0 0 .012.008z" transform="translate(0 1)"/>
        <path fill="url(#e)" d="M25.065 17.597V19.5a2.784 2.784 0 0 0 2.785 2.784h2.783v-2.478a7.428 7.428 0 0 1-5.568-2.208z" transform="translate(0 1)"/>
        <path fill="url(#f)" fill-rule="nonzero" d="M79.612 17.597a2.397 2.397 0 0 0-1.041-.68c-.02-.008-.042-.015-.065-.021l-.08-.023c-.022-.007-.046-.011-.07-.017l-.07-.015-.073-.013h-.012a2.238 2.238 0 0 0-.358-.03l-.133.001h-.004a1.211 1.211 0 0 0-.14.011c-.047 0-.09.01-.14.02a1.933 1.933 0 0 0-.277.064c-.045.013-.091.027-.134.043h-.006c-.043.016-.09.033-.133.053h-.005a.42.42 0 0 1-.125.035 4.178 4.178 0 0 1-3.754 2.472c.042.04.07.092.08.149a.24.24 0 0 1-.183.288c-.12.02-.364-.055-.39-.194-.016-.091.077-.194.175-.254-.175-.01-.35-.03-.522-.063.01.015.022.028.032.045l.02.04.013.026a2.118 2.118 0 0 1-.1 2.037l-.03.044-.01.018c-.164.23-.402.398-.674.475a6.948 6.948 0 0 0 5.704-1.22v1.391h2.784v-4.484a.517.517 0 0 1-.058-.025.942.942 0 0 1-.22-.173zm-7.099 4.193a.104.104 0 0 1-.134.068c-.051-.021-.13-.112-.107-.173.023-.061.138-.067.19-.044.051.03.072.095.047.15h.004zm.398-.574a.16.16 0 0 1-.177.14c-.08-.015-.217-.12-.2-.211.018-.092.182-.138.263-.124a.16.16 0 0 1 .11.195h.004zm.018-.52c-.102 0-.293-.099-.291-.216.002-.118.194-.21.296-.21a.215.215 0 0 1 0 .425h-.005z" transform="translate(0 1)"/>
        <path fill="url(#g)" fill-rule="nonzero" d="M77.144 8.366v1.391a6.959 6.959 0 0 0-8.836.4.3.3 0 0 1 .2.16.273.273 0 0 1-.096.37c-.123.062-.415.063-.487-.079a.163.163 0 0 1-.015-.059 6.14 6.14 0 0 0-.25.28 3.581 3.581 0 0 1 .507 2.595c0 .025-.01.051-.015.077v.007a1.435 1.435 0 0 1-2.082.931 6.932 6.932 0 0 0 1.81 5.624.417.417 0 0 1 .181-.2.412.412 0 0 1 .36-.025l.02.007c.04.018.08.033.119.048h.004c.04.013.08.026.12.037.04.01.079.023.12.032a2.744 2.744 0 0 0 .249.04c.04.006.082.009.123.01h.117c.07 0 .138-.006.207-.013l.11-.015h.01l.065-.012c.02 0 .042-.01.062-.015l.062-.014c.024-.007.048-.013.071-.021a2.157 2.157 0 0 0 .972-.625.792.792 0 0 1 .322-.209 4.177 4.177 0 0 1-2.366-4.232.422.422 0 0 1-.058-.006c-.24-.058-.637-.387-.572-.662.066-.275.568-.392.809-.335.02.005.038.012.057.02.095-.257.215-.503.359-.736a.346.346 0 0 1-.232.134c-.206.024-.618-.122-.646-.364-.028-.24.339-.476.546-.5.208-.025.398.15.425.387a.47.47 0 0 1-.033.243 4.17 4.17 0 0 1 7.666 2.233 3.848 3.848 0 0 1 2.73-.921h.055V8.366h-2.77zm-8.157 3.483c-.165.05-.524-.011-.581-.202-.057-.191.208-.44.375-.489a.364.364 0 0 1 .206.69z" transform="translate(0 1)"/>
    </g>
</svg>
